<?xml version="1.0" standalone="no"?>
<!DOCTYPE svg PUBLIC "-//W3C//DTD SVG 1.1//EN" "http://www.w3.org/Graphics/SVG/1.1/DTD/svg11.dtd" >
<svg xmlns="http://www.w3.org/2000/svg">
<metadata>Generated by IcoMoon</metadata>
<defs>
<font id="egypt-icon" horiz-adv-x="1024">
<font-face units-per-em="1024" ascent="960" descent="-64" />
<missing-glyph horiz-adv-x="1024" />
<glyph unicode="&#x20;" horiz-adv-x="512" d="" />
<glyph unicode="&#xe900;" glyph-name="clock" d="M512 960c-281.6 0-512-230.4-512-512s230.4-512 512-512 512 230.4 512 512-230.4 512-512 512zM512 38.4c-225.28 0-409.6 184.32-409.6 409.6s184.32 409.6 409.6 409.6 409.6-184.32 409.6-409.6-184.32-409.6-409.6-409.6zM537.6 704h-76.8v-307.2l266.24-163.84 40.96 66.56-230.4 138.24z" />
<glyph unicode="&#xe901;" glyph-name="maps-and-location" d="M1009.938 858.5c-8.813 5.938-20.094 7.188-29.812 3.219l-308.125-123.251-308.127 123.251c-7.626 3.063-16.125 3.063-23.75 0l-319.999-127.999c-12.156-4.875-20.125-16.625-20.125-29.72v-640c0-10.624 5.282-20.531 14.062-26.501 5.376-3.625 11.624-5.501 17.937-5.501 4.032 0 8.063 0.75 11.874 2.281l308.125 123.251 308.127-123.249c7.626-3.063 16.125-3.063 23.75 0l319.999 127.999c12.156 4.875 20.125 16.625 20.125 29.718v640.002c0 10.624-5.282 20.531-14.062 26.499zM384 784.73l256-102.399v-571.062l-256 102.399zM64.001 682.343l256 102.391v-571.066l-256-102.419zM959.999 213.657l-256-102.391v571.067l256 102.417z" />
<glyph unicode="&#xe902;" glyph-name="logo" d="M590.924 624.472v88.231c0 13.245 0.609 23.505 1.848 30.752 1.234 7.258 4.041 14.397 8.399 21.444 4.351 7.043 11.395 11.905 21.124 14.599 9.741 2.699 22.686 4.044 38.848 4.044h88.227v176.458h-141.047c-81.613 0-140.229-19.363-175.855-58.089-35.622-38.735-53.432-95.79-53.432-171.187v-106.249h-105.644v-176.471h105.638v-511.999h211.894v511.997h141.038l18.643 176.471h-159.679z" />
<glyph unicode="&#xe903;" glyph-name="twitter" d="M1024 765.504c-38.080-16.704-78.656-27.776-120.96-33.152 43.52 25.984 76.736 66.816 92.352 116.032-40.576-24.192-85.376-41.28-133.12-50.816-38.528 41.024-93.44 66.432-153.344 66.432-116.224 0-209.792-94.336-209.792-209.984 0-16.64 1.408-32.64 4.864-47.872-174.528 8.512-328.96 92.16-432.704 219.584-18.112-31.424-28.736-67.392-28.736-106.112 0-72.704 37.44-137.152 93.248-174.464-33.728 0.64-66.816 10.432-94.848 25.856 0-0.64 0-1.472 0-2.304 0-102.016 72.768-186.752 168.192-206.272-17.088-4.672-35.712-6.912-55.040-6.912-13.44 0-27.008 0.768-39.744 3.584 27.2-83.136 104.384-144.256 196.16-146.24-71.424-55.872-162.112-89.536-260.288-89.536-17.216 0-33.728 0.768-50.24 2.88 92.992-59.968 203.2-94.208 322.048-94.208 386.304 0 597.504 320 597.504 597.376 0 9.28-0.32 18.24-0.768 27.136 41.664 29.568 76.672 66.496 105.216 108.992z" />
<glyph unicode="&#xe904;" glyph-name="instagram" d="M921.6 960h-819.2c-56.32 0-102.4-46.080-102.4-102.4v-819.2c0-56.32 46.080-102.4 102.4-102.4h819.2c56.32 0 102.4 46.080 102.4 102.4v819.2c0 56.32-46.080 102.4-102.4 102.4zM512 652.8c112.64 0 204.8-92.16 204.8-204.8s-92.16-204.8-204.8-204.8c-112.64 0-204.8 92.16-204.8 204.8s92.16 204.8 204.8 204.8zM128 38.4c-15.36 0-25.6 10.24-25.6 25.6v435.2h107.52c-5.12-15.36-5.12-35.84-5.12-51.2 0-168.96 138.24-307.2 307.2-307.2s307.2 138.24 307.2 307.2c0 15.36 0 35.84-5.12 51.2h107.52v-435.2c0-15.36-10.24-25.6-25.6-25.6h-768zM921.6 729.6c0-15.36-10.24-25.6-25.6-25.6h-102.4c-15.36 0-25.6 10.24-25.6 25.6v102.4c0 15.36 10.24 25.6 25.6 25.6h102.4c15.36 0 25.6-10.24 25.6-25.6v-102.4z" />
<glyph unicode="&#xe905;" glyph-name="play" d="M169.634 952.895c8.178 4.733 17.331 7.105 26.497 7.105 9.142 0 18.292-2.372 26.505-7.105l631.726-459.006c16.37-9.457 26.508-26.967 26.508-45.898 0-18.928-10.111-36.435-26.508-45.881l-631.726-459.025c-16.395-9.446-36.605-9.446-52.989 0-16.397 9.479-26.519 26.994-26.519 45.912v918.006c0 18.92 10.105 36.427 26.505 45.892z" />
<glyph unicode="&#xe906;" glyph-name="search" d="M1001.239 70.148l-211.077 211.068c50.868 73.43 76.314 155.291 76.314 245.538 0 58.666-11.389 114.773-34.168 168.309-22.763 53.545-53.536 99.696-92.305 138.466s-84.914 69.542-138.448 92.308c-53.551 22.772-109.654 34.157-168.32 34.157-58.662 0-114.769-11.385-168.305-34.157-53.545-22.765-99.696-53.538-138.466-92.308-38.774-38.769-69.542-84.93-92.31-138.466-22.77-53.542-34.155-109.643-34.155-168.309 0-58.662 11.385-114.75 34.155-168.301 22.765-53.536 53.536-99.681 92.31-138.45 38.769-38.782 84.93-69.542 138.466-92.32 53.542-22.768 109.643-34.15 168.305-34.15 90.266 0 172.114 25.449 245.548 76.312l211.077-210.456c14.769-15.586 33.206-23.384 55.379-23.384 21.332 0 39.804 7.796 55.381 23.384 15.584 15.584 23.382 34.047 23.382 55.379 0.006 21.731-7.583 40.201-22.763 55.381zM628.006 332.005c-53.948-53.956-118.866-80.933-194.771-80.933-75.892 0-140.811 26.984-194.763 80.933s-80.927 118.858-80.927 194.763c0 75.892 26.981 140.821 80.927 194.763 53.941 53.954 118.871 80.927 194.763 80.927 75.896 0 140.815-26.984 194.771-80.927 53.956-53.941 80.931-118.871 80.931-194.763 0-75.905-26.984-140.815-80.931-194.763z" />
<glyph unicode="&#xe907;" glyph-name="cultures" d="M359.914 357.392v413.89l-56.531 173.375-164.515-440.093h161.726v-126.953zM659.554 960h-298.085l50.211-153.961h67.789v89.976h59.984v-89.976h68.781zM419.906 607.673l42.266-41.578h95.992l41.695 41.461v138.492h-179.953zM719.586 504.938h160.086l-161.961 439.819-57.867-173.586v-413.382l59.742 19.953zM787.812 58.213h235.945v-121.969h-235.945zM727.828 118.197h51.328v87.984h59.984v-87.984h121.633v326.757h-181.203v-110.414l-179.711-60.031v248.453l-16.953-16.852h-43.195v-149.968h-59.984v149.968h-42.109l-17.711 17.422v-249.953l-179.297 61.094v109.906h-180.625v-326.382h119.976v87.984h59.984v-87.984h57.984v-181.953h121.89v149.843c0 49.609 40.359 89.976 89.976 89.976s89.976-40.367 89.976-89.976v-149.843h128.054zM509.797 116.080c-16.539 0-29.992-13.461-29.992-29.992v-150.086h59.984v150.086c0 16.531-13.453 29.992-29.992 29.992zM0.001 58.213h237.945v-121.969h-237.945z" />
<glyph unicode="&#xe908;" glyph-name="supermarket" d="M810.779 234.772c-70.404 0-127.681-57.278-127.681-127.681s57.278-127.681 127.681-127.681 127.681 57.278 127.681 127.681-57.278 127.681-127.681 127.681zM810.779 56.019c-28.166 0-51.072 22.906-51.072 51.072s22.906 51.072 51.072 51.072c28.166 0 51.072-22.906 51.072-51.072s-22.906-51.072-51.072-51.072zM1015.86 728.249c-7.252 9.282-18.374 14.696-30.158 14.696h-749.26l-34.474 144.241c-4.124 17.236-19.536 29.404-37.258 29.404h-126.405c-21.156 0.002-38.304-17.146-38.304-38.302s17.148-38.304 38.304-38.304h96.171l124.489-520.889c4.124-17.25 19.536-29.404 37.258-29.404h596.273c17.608 0 32.954 12.002 37.18 29.086l93.209 376.66c2.82 11.438 0.228 23.53-7.024 32.812zM862.527 366.297h-536.071l-71.706 300.040h682.010l-74.232-300.040zM347.294 234.772c-70.404 0-127.681-57.278-127.681-127.681s57.278-127.681 127.681-127.681 127.681 57.278 127.681 127.681-57.278 127.681-127.681 127.681zM347.294 56.019c-28.166 0-51.072 22.906-51.072 51.072s22.906 51.072 51.072 51.072 51.072-22.906 51.072-51.072-22.906-51.072-51.072-51.072z" />
<glyph unicode="&#xe909;" glyph-name="left-angle" d="M782.857 397.307l-440.304-440.29c-28.009-28.022-73.42-28.022-101.415 0-27.997 27.997-27.997 73.406 0 101.401l389.601 389.589-389.589 389.576c-27.997 28.009-27.997 73.413 0 101.41 27.997 28.009 73.406 28.009 101.415 0l440.304-440.297c13.999-14.005 20.99-32.342 20.99-50.687 0-18.354-7.005-36.704-21.001-50.703z" />
<glyph unicode="&#xe90a;" glyph-name="arrow-1" d="M1019.582 451.351c-10.746 64.026-42.613 98.075-67.452 115.369-25.851 17.995-53.024 24.724-73.685 26.965-26.189 35.183-64.050 54.418-107.596 54.418-9.513 0-19.212-0.91-28.953-2.713-25.811 29.619-61.557 45.779-101.607 45.779-0.74 0-2.39-0.008-2.39-0.020v148.536c0 63.916-48.311 112.117-112.223 112.117s-112.223-48.201-112.223-112.117v-414.85c0-6.466-5.619-8.635-8.312-8.635-1.295 0-2.449 0.347-3.812 1.063-36.88 19.491-78.552 38.187-131.281 58.832-15.038 5.887-30.367 8.875-45.622 8.875-50.166 0.008-93.302-32.119-107.36-79.942-14.357-48.819 6.867-99.989 54.052-130.356 29.95-19.275 61.486-34.785 91.983-49.788 46.33-22.783 90.089-44.306 107.458-69.948 15.081-22.263 48.303-85.38 88.869-167.736 12.868-26.122 38.955-43.003 68.090-43.003h303.183c37.908 0 70.263 28.993 75.252 66.57l15.42 116.393c86.14 132.147 114.605 226.521 98.209 324.19zM879.583 149.916c-2.367-3.611-3.914-7.714-4.485-11.994l-15.983-120.929c-1.89-14.242-14.042-25.54-28.414-25.54h-303.183c-10.915 0-20.877 6.836-25.697 16.633-19.168 38.92-68.621 138.314-92.133 173.024-38.038 56.151-135.845 83.482-212.987 133.132-67.208 43.255-33.001 123.406 27.756 123.398 8.978 0 18.542-1.709 28.434-5.584 44.298-17.341 86.912-35.667 126.505-56.588 8.49-4.489 17.089-6.533 25.748-6.533 29.229 0 55.564 23.464 55.564 55.899v414.85c0 43.243 32.541 64.865 64.971 64.865s64.971-21.618 64.971-64.865v-168.685c0-16.125 13.329-28.631 28.934-28.631 1.406 0 2.926 0.102 4.371 0.315 5.135 0.748 10.699 1.229 16.463 1.229 23.228 0 50.347-7.726 71.173-36.262 5.442-7.454 14.081-11.533 23.047-11.533 2.469 0 4.965 0.307 7.422 0.941 8.045 2.063 17.987 3.788 28.788 3.788 24.114 0 52.524-8.584 73.658-41.077 4.883-7.509 13.215-12.049 22.161-12.53 28.989-1.551 91.483-15.357 106.316-103.721 14.057-83.734-9.828-166.243-93.401-293.603zM190.318 566.35c0 13.045-10.58 23.626-23.626 23.626h-82.293l210.924 212.676v-82.297c0-13.045 10.58-23.626 23.626-23.626s23.626 10.58 23.626 23.626v141.755c0 13.045-9.269 23.189-22.315 23.189h-137.818c-13.045 0-23.626-10.577-23.626-23.626s10.58-23.626 23.626-23.626h83.195l-218.386-216.645v83.202c0 13.045-10.577 23.626-23.626 23.626s-23.626-10.58-23.626-23.626v-137.818c0-13.045 11.892-24.063 24.937-24.063h141.755c13.045 0 23.626 10.577 23.626 23.626z" />
<glyph unicode="&#xe90b;" glyph-name="tick" d="M302.080 545.28l-71.68-71.68 230.4-230.4 512 512-71.68 71.68-440.32-440.32-158.72 158.72zM921.6 448c0-225.28-184.32-409.6-409.6-409.6s-409.6 184.32-409.6 409.6 184.32 409.6 409.6 409.6c40.96 0 76.8-5.12 112.64-15.36l81.922 81.92c-61.442 20.48-128.002 35.84-194.562 35.84-281.6 0-512-230.4-512-512s230.4-512 512-512 512 230.4 512 512h-102.4z" />
<glyph unicode="&#xe90c;" glyph-name="pause" d="M73.143-64h292.571v1024h-292.571v-1024zM658.286 960v-1024h292.571v1024h-292.571z" />
<glyph unicode="&#xe90d;" glyph-name="ui" d="M795.429 169.358l-38.713 62.072c75.75 47.322 121.001 128.287 121.001 216.571s-45.25 169.249-121.001 216.571l38.713 62.072c97.321-60.785 155.428-164.964 155.428-278.643s-58.107-217.859-155.428-278.643zM621.718-64h-146.267c-10.856 0-21.14 4.822-28.103 13.142l-171.836 206.287h-165.802c-9.678 0-18.998 3.785-25.854 10.643s-10.713 16.143-10.713 25.856l0.035 512.106c0 9.713 3.857 19.001 10.713 25.856 6.856 6.858 16.176 10.678 25.854 10.678h165.729l171.871 206.287c6.966 8.323 17.25 13.145 28.106 13.145h146.267c20.211 0 36.567-16.358 36.567-36.572v-950.857c0.002-20.216-16.354-36.572-36.567-36.572zM492.591 9.143h92.56v877.714h-92.56l-171.871-206.287c-6.963-8.321-17.248-13.142-28.103-13.142l-146.331 0.037-0.009-438.963 146.34 0.073c10.856 0 21.14-4.822 28.103-13.142 0-0.002 171.871-206.289 171.871-206.289z" />
<glyph unicode="&#xe90e;" glyph-name="art-museum" d="M1024 256c-126.063 0-191.999 48.281-191.999 96.001 0 17.687-14.312 32-32 32s-32-14.312-32-32c0-37.905-114.688-96.001-256.001-96.001s-256.001 58.093-256.001 96.001c0 17.687-14.312 32-32 32s-32-14.312-32-32c0-47.72-65.937-96.001-191.999-96.001v-63.999c87.001 0 150.085 19.57 191.999 48.808v-304.808h63.999v321.106c62.298-40.835 161.154-65.105 256.001-65.105s193.703 24.27 256.001 65.105v-321.106h63.999v304.813c41.919-29.237 105-48.812 191.999-48.812zM493.255 813.254c24.995-24.995 24.995-65.516 0-90.509-24.995-24.995-65.516-24.995-90.509 0-24.995 24.995-24.995 65.516 0 90.509 24.992 24.995 65.516 24.995 90.509 0zM224.001 447.999h576c17.687 0 32 14.312 32 32v448.002c0 17.687-14.312 32-32 32h-576c-17.687 0-32-14.312-32-32v-448c-0.002-17.69 14.312-32.002 32-32.002zM525.293 512l114.708 114.751 114.751-114.751zM256.001 895.999h512.001v-306.75l-105.375 105.375c-12 12-33.251 12-45.251 0l-182.566-182.625h-178.809z" />
<glyph unicode="&#xe90f;" glyph-name="smile" d="M215.944 377.484c-3.722 3.722-8.864 5.864-14.146 5.864-5.262 0-10.426-2.142-14.146-5.864-3.722-3.72-5.862-8.882-5.862-14.144 0-5.284 2.142-10.426 5.862-14.166 3.722-3.722 8.884-5.842 14.146-5.842s10.426 2.12 14.146 5.842c3.722 3.742 5.862 8.882 5.862 14.166 0 5.262-2.14 10.424-5.862 14.144zM404.634 377.484c-3.72 3.722-8.882 5.864-14.146 5.864-5.262 0-10.426-2.142-14.146-5.864-3.722-3.72-5.862-8.882-5.862-14.144 0-5.284 2.14-10.426 5.862-14.166 3.722-3.722 8.884-5.842 14.146-5.842s10.426 2.12 14.146 5.842c3.722 3.742 5.862 8.904 5.862 14.166s-2.14 10.424-5.862 14.144zM367.932 267.61c-10.676 2.86-21.642-3.492-24.496-14.166-5.718-21.404-25.164-36.356-47.292-36.356-22.126 0-41.572 14.952-47.292 36.356-2.852 10.678-13.818 17.030-24.496 14.166-10.676-2.854-17.018-13.818-14.166-24.496 10.388-38.886 45.734-66.046 85.956-66.046 40.22 0 75.566 27.16 85.954 66.046 2.85 10.676-3.494 21.644-14.168 24.496zM512.242 880.010c-11.052 0-20.010-8.958-20.010-20.010v-127.028c0-11.052 8.958-20.010 20.010-20.010s20.010 8.958 20.010 20.010v127.028c0 11.052-8.958 20.010-20.010 20.010zM526.396 676.41c-3.724 3.742-8.886 5.862-14.146 5.862-5.282 0-10.426-2.122-14.166-5.862-3.722-3.722-5.842-8.884-5.842-14.146s2.122-10.426 5.842-14.146c3.742-3.722 8.884-5.862 14.166-5.862 5.262 0 10.426 2.14 14.146 5.862s5.862 8.884 5.862 14.146-2.142 10.424-5.862 14.146zM390.304 698.1l-51.084 51.040c-7.816 7.81-20.488 7.806-28.298-0.012s-7.806-20.486 0.012-28.298l51.084-51.042c3.906-3.904 9.024-5.854 14.142-5.854 5.124 0 10.25 1.958 14.156 5.866 7.81 7.82 7.806 20.488-0.012 28.3zM713.602 749.088c-7.818 7.812-20.488 7.806-28.298-0.010l-54.31-54.354c-7.812-7.818-7.806-20.488 0.010-28.298 3.906-3.906 9.024-5.856 14.142-5.856 5.124 0 10.248 1.956 14.154 5.866l54.31 54.354c7.814 7.818 7.808 20.488-0.008 28.298zM1013.876 388.92c-42.264 157.734-204.972 251.672-362.702 209.404-54.136-14.506-101.962-43.348-139.318-83.286-55.892 59.528-133.244 93.242-215.712 93.242-163.294 0-296.144-132.852-296.144-296.146s132.85-296.144 296.144-296.144c82.546 0 160.022 33.818 215.934 93.49 55.364-58.702 133.442-93.388 215.812-93.388 25.298 0 51.010 3.274 76.58 10.124 157.73 42.266 251.67 204.976 209.406 362.704zM296.144 56.010c-141.23 0-256.126 114.898-256.126 256.126s114.896 256.126 256.126 256.126c73.11 0 141.582-30.638 190.176-84.564-5.308-7.508-10.312-15.29-14.968-23.352-39.552-68.506-50.058-148.314-29.584-224.72 9.394-35.066 24.742-66.974 44.664-94.938-48.604-53.996-117.152-84.678-190.288-84.678zM794.112 64.872c-136.414-36.542-277.136 44.694-313.688 181.108-17.706 66.082-8.62 135.106 25.586 194.352 6.312 10.932 13.342 21.284 21.020 31.018 0.332 0.382 0.64 0.778 0.94 1.18 33.86 42.406 80.164 72.83 133.56 87.138 22.122 5.926 44.346 8.756 66.232 8.756 113.072 0 216.83-75.57 247.454-189.862 36.556-136.416-44.69-277.136-181.104-313.69zM669.21 351.502c-6.192 23.116-30.028 36.888-53.154 30.69-23.116-6.196-36.882-30.038-30.688-53.154 2.396-8.94 10.48-14.838 19.316-14.838 1.712 0 3.458 0.222 5.19 0.688 10.676 2.862 17.010 13.83 14.148 24.506-0.482 1.8 0.59 3.66 2.39 4.142 1.116 0.296 2.012-0.020 2.566-0.338 0.552-0.32 1.276-0.936 1.576-2.052 2.86-10.674 13.828-17.012 24.506-14.148 10.678 2.858 17.010 13.828 14.15 24.504zM850.338 400.036c-3.002 11.198-10.182 20.556-20.222 26.354-10.040 5.794-21.736 7.336-32.932 4.334-11.198-3-20.558-10.18-26.352-20.22-5.796-10.040-7.338-21.734-4.336-32.934 2.396-8.94 10.48-14.836 19.316-14.836 1.712 0.002 3.458 0.222 5.192 0.688 10.674 2.862 17.008 13.832 14.148 24.508-0.298 1.116 0.018 2.010 0.338 2.564s0.934 1.276 2.052 1.574c1.116 0.298 2.014-0.020 2.566-0.338s1.274-0.934 1.574-2.052c2.86-10.674 13.828-17.010 24.506-14.148 10.676 2.86 17.010 13.83 14.15 24.506zM832.808 274.48c-2.862 10.674-13.834 17.012-24.508 14.15-10.676-2.862-17.008-13.83-14.148-24.506 6.808-25.41-8.326-51.624-33.736-58.432-12.312-3.3-25.168-1.604-36.202 4.766-11.038 6.374-18.932 16.66-22.228 28.97-2.862 10.674-13.832 17.016-24.508 14.148-10.674-2.862-17.008-13.832-14.148-24.506 6.066-22.636 20.582-41.554 40.876-53.27 13.516-7.804 28.52-11.792 43.722-11.792 7.622 0 15.292 1 22.85 3.028 46.722 12.52 74.548 60.722 62.030 107.444z" />
<glyph unicode="&#xe910;" glyph-name="medal" d="M512 514.77c-61.372 0-111.302-49.93-111.302-111.302s49.93-111.302 111.302-111.302c61.372 0 111.302 49.93 111.302 111.302s-49.93 111.302-111.302 111.302zM512 336.687c-36.819 0-66.781 29.962-66.781 66.781s29.962 66.781 66.781 66.781 66.781-29.962 66.781-66.781-29.962-66.781-66.781-66.781zM1023.878 760.191c-0.045 1.714-0.579 3.272-1.002 4.92-0.312 1.202-0.401 2.449-0.89 3.562-0.579 1.291-1.536 2.315-2.337 3.473-0.824 1.18-1.491 2.471-2.538 3.473-0.846 0.801-1.959 1.291-2.938 1.981-1.425 1.002-2.76 2.048-4.408 2.694-0.178 0.067-0.289 0.223-0.467 0.289l-489.728 178.083c-4.92 1.781-10.307 1.781-15.226 0l-489.728-178.083c-0.178-0.067-0.289-0.2-0.467-0.289-1.647-0.646-2.983-1.692-4.408-2.694-0.979-0.69-2.092-1.158-2.938-1.981-1.046-1.002-1.692-2.293-2.538-3.473-0.801-1.158-1.759-2.182-2.337-3.473-0.49-1.113-0.579-2.36-0.89-3.562-0.423-1.625-0.957-3.205-1.002-4.92 0.089-0.2-0.022-0.356-0.022-0.557v-623.291c0-12.31 9.973-22.26 22.26-22.26h333.906v-155.823c0-8.214 4.519-15.76 11.753-19.634 7.19-3.873 15.983-3.428 22.839 1.113l121.23 80.805 121.208-80.805c3.74-2.471 8.036-3.74 12.355-3.74 3.606 0 7.212 0.868 10.507 2.627 7.235 3.873 11.753 11.42 11.753 19.634v155.823h333.906c12.288 0 22.26 9.95 22.26 22.26v623.291c0 0.2-0.111 0.356-0.111 0.557zM133.573 158.604h-89.042v578.77h89.042v-578.77zM623.302-0.157l-98.947 65.98c-7.479 5.009-17.207 5.009-24.687 0l-98.97-65.98v185.785c33.435-17.14 71.211-27.024 111.302-27.024s77.867 9.884 111.302 27.024v-185.785zM512 203.125c-110.456 0-200.343 89.865-200.343 200.343s89.887 200.343 200.343 200.343 200.343-89.865 200.343-200.343-89.887-200.343-200.343-200.343zM845.906 158.604h-178.083v56.118c54.338 44.944 89.042 112.86 89.042 188.746 0 135.009-109.855 244.864-244.864 244.864s-244.864-109.855-244.864-244.864c0-75.863 34.704-143.78 89.042-188.746v-56.118h-178.083v578.77h667.812v-578.77zM148.621 781.895l363.379 132.138 363.379-132.138h-726.757zM979.468 158.604h-89.042v578.77h89.042v-578.77z" />
<glyph unicode="&#xe911;" glyph-name="jar" d="M947.145 678.2c0 105.097-79.237 191.887-181.067 204.171v58.125c0 10.792-8.744 19.503-19.503 19.503h-463.89c-10.765 0-19.503-8.711-19.503-19.503v-57.474c-104.368-9.863-186.327-97.933-186.327-204.817 0-69.513 34.364-132.715 91.928-171.037-24.774-43.715-37.465-88.377-37.465-133.121 0-151.389 140.218-267.061 251.571-335.105-84.146-14.249-131.212-43.621-131.212-83.428 0-10.781 8.733-19.503 19.503-19.503h477.293c10.781 0 19.503 8.722 19.503 19.503 0 39.808-47.044 69.185-131.196 83.428 111.353 67.999 251.582 183.716 251.582 335.105 0 44.862-11.716 89.479-33.98 132.581 58.092 38.255 92.763 101.685 92.763 171.571zM302.188 920.994h424.873v-38.439c-62.706-9.434-110.935-63.703-110.935-128.991 0-45.402 24.173-88.221 61.905-110.941 47.962-33.991 120.231-96.002 153.448-178.751h-58.521c-10.781 0-19.503-8.722-19.503-19.503v-119.468h-99.959v119.462c0 10.781-8.761 19.503-19.509 19.503h-138.982c-10.77 0-19.503-8.722-19.503-19.503v-119.468h-99.948v119.468c0 10.781-8.744 19.503-19.503 19.503h-138.977c-10.77 0-19.503-8.722-19.503-19.503v-120.286h-20.839c-3.952 16.191-6.429 32.817-6.429 49.982 0 114.987 99.241 209.503 182.508 268.586 1.364 0.974 2.533 2.059 3.523 3.317 35.188 24.179 56.762 64.749 56.762 107.635 0 65.306-48.24 119.552-110.941 128.991v38.405h0.033zM115.884 678.2c0 91.978 74.835 166.807 166.818 166.807 50.4 0 91.438-41.027 91.438-91.449 0-32.316-16.553-61.61-44.277-78.341-2.143-1.291-3.913-2.972-5.265-4.876-57.491-41.528-102.514-85.332-134.674-130.405-46.381 31.086-74.039 82.132-74.039 138.264zM566.649 43.752c-7.675-4.074-11.7-12.746-9.902-21.24 1.787-8.494 8.989-14.778 17.616-15.423 73.465-5.521 115.717-19.336 136.94-32.099h-402.848c21.217 12.746 63.43 26.572 136.906 32.099 8.638 0.646 15.835 6.93 17.611 15.423 1.792 8.494-2.249 17.143-9.885 21.24-84.402 45.118-214.29 129.598-263.126 241.279h30.351c10.765 0 19.503 8.716 19.503 19.503v120.303h96.742v-119.468c0-10.781 8.733-19.503 19.503-19.503h138.977c10.765 0 19.503 8.722 19.503 19.503v119.468h99.954v-119.468c0-10.781 8.739-19.503 19.503-19.503h138.971c10.787 0 19.509 8.722 19.509 19.503v119.468h51.046c3.657-16.308 5.872-33.218 5.872-50.801-0.006-155.908-177.148-273.846-282.746-330.285zM834.607 540.287c-31.787 48.135-77.139 93.809-135.181 134.936-27.713 16.715-44.283 46.008-44.283 78.341 0 49.821 40.114 90.297 89.696 91.265 90.341-1.915 163.295-75.836 163.295-166.629 0-55.96-27.463-106.789-73.527-137.914z" />
<glyph unicode="&#xe912;" glyph-name="quote" d="M1024 945.499v-514.286c0-320.547-117.141-480.799-351.465-480.799-25.91 0-65.494 1.785-118.839 5.139v199.008c162.081 0 242.903 74.944 242.903 224.788l-2.613 90.49h-167.916v475.573l397.929 0.087zM51.733 469.969h167.916l2.613-90.446c0-141.222-74.073-216.209-222.262-224.831v-199.008c46.464-3.397 79.211-5.095 98.154-5.095 234.325 0 351.465 160.252 351.465 480.755v514.243h-397.973v-475.573l0.087-0.044z" />
<glyph unicode="&#xe913;" glyph-name="add" d="M1024 468.617h-491.38v491.383h-41.258v-491.383h-491.362v-41.248h491.362v-491.369h41.258v491.369h491.38z" />
<glyph unicode="&#xe914;" glyph-name="right-arrow" d="M439.145 886.858l-439.143-438.858 438.999-438.858 51.714 51.572-350.715 350.715h884v73.144h-883.998l350.857 350.857z" />
<glyph unicode="&#xe915;" glyph-name="right-arrow1" d="M584.855 9.142l439.143 438.858-438.999 438.858-51.714-51.572 350.715-350.715h-884v-73.144h883.998l-350.857-350.857z" />
<glyph unicode="&#xe916;" glyph-name="arrow-2" d="M562.694 718.856l440.291-440.311c28.022-28.009 28.022-73.406 0-101.401-27.997-27.997-73.406-27.997-101.401 0l-389.583 389.595-389.581-389.595c-28.011-27.997-73.415-27.997-101.411 0-28.009 27.997-28.009 73.406 0 101.415l440.298 440.311c14.005 13.992 32.342 20.983 50.694 20.983 18.345 0 36.695-7.005 50.694-20.997z" />
<glyph unicode="&#xe917;" glyph-name="time" d="M512 960c-282.317 0-512-229.683-512-512s229.683-512 512-512 512 229.683 512 512-229.683 512-512 512zM512-29.867c-263.492 0-477.867 214.374-477.867 477.867s214.374 477.867 477.867 477.867 477.867-214.374 477.867-477.867-214.374-477.867-477.867-477.867zM529.067 515.908v173.090c0 9.438-7.646 17.067-17.067 17.067s-17.067-7.629-17.067-17.067v-173.090c-23.876-6.212-42.564-24.9-48.777-48.777h-121.89c-9.421 0-17.067-7.629-17.067-17.067s7.646-17.067 17.067-17.067h121.89c7.629-29.355 34.133-51.2 65.843-51.2 37.649 0 68.267 30.618 68.267 68.267 0 31.727-21.845 58.214-51.2 65.843zM512 415.932c-18.825 0-34.133 15.309-34.133 34.133s15.309 34.133 34.133 34.133 34.133-15.309 34.133-34.133-15.309-34.133-34.133-34.133zM512 791.398c9.421 0 17.067 7.629 17.067 17.067v17.067c0 9.438-7.646 17.067-17.067 17.067s-17.067-7.629-17.067-17.067v-17.067c0-9.438 7.646-17.067 17.067-17.067zM512 108.732c-9.421 0-17.067-7.629-17.067-17.067v-17.067c0-9.438 7.646-17.067 17.067-17.067s17.067 7.629 17.067 17.067v17.067c0 9.438-7.646 17.067-17.067 17.067zM887.467 467.132h-17.067c-9.421 0-17.067-7.629-17.067-17.067s7.646-17.067 17.067-17.067h17.067c9.421 0 17.067 7.629 17.067 17.067s-7.646 17.067-17.067 17.067zM153.6 467.132h-17.067c-9.421 0-17.067-7.629-17.067-17.067s7.646-17.067 17.067-17.067h17.067c9.421 0 17.067 7.629 17.067 17.067s-7.646 17.067-17.067 17.067zM765.423 727.637l-12.066-12.066c-6.673-6.673-6.673-17.459 0-24.132 3.328-3.328 7.697-5.001 12.066-5.001s8.738 1.673 12.066 5.001l12.066 12.066c6.673 6.673 6.673 17.459 0 24.132s-17.459 6.656-24.132 0zM246.511 208.708l-12.066-12.066c-6.673-6.673-6.673-17.459 0-24.132 3.328-3.328 7.697-5.001 12.066-5.001s8.738 1.673 12.066 5.001l12.066 12.066c6.673 6.673 6.673 17.459 0 24.132s-17.476 6.656-24.132 0zM777.489 208.708c-6.673 6.673-17.459 6.673-24.132 0s-6.673-17.459 0-24.132l12.066-12.066c3.328-3.328 7.697-5.001 12.066-5.001s8.738 1.673 12.066 5.001c6.673 6.673 6.673 17.459 0 24.132l-12.066 12.066zM258.577 727.637c-6.673 6.673-17.459 6.673-24.132 0s-6.673-17.459 0-24.132l12.066-12.066c3.328-3.328 7.697-5.001 12.066-5.001s8.738 1.673 12.066 5.001c6.673 6.673 6.673 17.459 0 24.132l-12.066 12.066z" />
<glyph unicode="&#xe918;" glyph-name="global" d="M802.253 869.461l0.836 0.546-22.579 13.926c-1.331 0.819-2.731 1.502-4.062 2.321-7.407 4.471-14.933 8.755-22.579 12.868-3.874 2.082-7.799 4.045-11.725 6.025-5.751 2.918-11.571 5.7-17.442 8.397-3.465 1.587-6.912 3.209-10.394 4.71-9.131 3.942-18.364 7.646-27.75 11.059-1.929 0.7-3.891 1.297-5.837 1.98-8.209 2.867-16.521 5.53-24.9 7.987-2.679 0.785-5.359 1.553-8.055 2.287-9.284 2.56-18.671 4.898-28.16 6.929-0.905 0.188-1.775 0.427-2.679 0.614-10.496 2.202-21.111 4.011-31.829 5.547-2.355 0.341-4.745 0.597-7.1 0.905-8.38 1.075-16.811 1.963-25.31 2.628-2.867 0.222-5.717 0.478-8.585 0.649-10.633 0.717-21.316 1.161-32.102 1.161-11.657 0-23.177-0.529-34.645-1.297-3.004-0.205-5.99-0.427-8.994-0.683-10.769-0.905-21.47-2.065-32.051-3.652-1.058-0.154-2.116-0.29-3.174-0.444-10.65-1.655-21.163-3.738-31.573-6.042-3.447-0.751-6.878-1.553-10.308-2.389-9.591-2.321-19.081-4.864-28.45-7.714-2.97-0.905-5.905-1.894-8.841-2.85-8.397-2.731-16.708-5.683-24.9-8.841-3.755-1.434-7.509-2.901-11.23-4.437-9.421-3.874-18.739-7.936-27.87-12.356-3.004-1.451-5.956-3.072-8.943-4.591-7.134-3.618-14.165-7.39-21.094-11.332-3.465-1.963-6.912-3.908-10.342-5.956-8.67-5.205-17.186-10.633-25.515-16.316-1.143-0.785-2.355-1.434-3.482-2.236l-9.301-6.451 0.085-0.375c-127.966-93.133-211.371-243.985-211.371-414.037 0-282.317 229.683-512 512-512s512 229.683 512 512c0 174.609-87.927 329.011-221.747 421.461zM512-29.867c-263.492 0-477.867 214.374-477.867 477.867 0 154.914 74.155 292.796 188.774 380.16 3.021-6.775 6.11-13.773 9.318-21.077 33.57-76.544 75.349-171.793 145.203-198.588 18.381-7.049 35.533-9.557 52.105-11.947 17.51-2.543 34.048-4.949 50.125-12.834 1.297-0.631 3.977-2.714 4.659-3.567 6.093-8.943 7.748-21.299 9.335-33.246 2.202-16.486 4.693-35.174 21.385-43.998 5.427-2.884 10.172-8.687 7.731-14.677-26.505-65.058-4.13-139.793 57.020-190.413 15.667-12.971 23.142-48.503-30.242-144.077-7.492-13.414-7.339-29.303 0.393-42.496 7.834-13.363 22.135-21.641 37.325-21.641 4.949 0 9.899 0.87 14.677 2.56 36.949 13.141 68.369 32.222 105.079 63.812 25.344 21.777 40.823 43.947 55.808 65.399 15.121 21.658 29.423 42.121 52.855 59.375 3.413 2.492 5.939 5.888 7.287 9.813 1.843 5.393 4.267 11.742 6.929 18.739 17.545 46.012 44.066 115.558-2.97 140.015-16.913 8.789-28.809 29.047-42.615 52.514-10.752 18.313-22.955 39.066-39.526 56.508-6.417 6.741-15.462 11.025-26.112 12.407-14.677 1.877-26.402 7.561-37.769 13.056-12.305 5.956-23.927 11.571-37.53 11.571-10.854 0-20.924-3.601-30.754-10.991-11.81-8.909-23.927-3.806-28.297 11.281-3.311 11.452-10.223 25.515-34.338 32.956-1.058 0.341-1.877 1.075-2.441 2.236-0.751 1.519-0.836 3.396-0.051 5.547 2.987 8.158 2.116 16.23-2.458 22.801-7.834 11.23-22.75 12.817-33.69 12.902-0.358 1.434-0.905 2.901-1.741 4.403l-5.035 8.994-15.65-0.341-4.011-2.372c-4.352-2.526-9.66-0.734-13.961 3.772-3.601 3.772-5.632 8.823-5.41 13.483 0.171 3.908 0.427 6.127 0.649 7.407 4.181 1.229 14.165 2.355 23.859 3.43l10.359 1.178 2.509 1.161c27.614 12.817 31.642 7.151 33.98 4.727 2.253-2.321 7.407-10.291 6.741-34.304l-0.427-15.155 14.985-2.219c4.386-0.649 8.414-0.956 12.083-0.956 18.039 0 27.529 7.595 32.324 13.995 8.090 10.786 9.233 25.6 3.482 45.278-0.87 2.987-0.102 6.656 1.963 9.335 47.206 61.423 86.818 89.685 162.253 115.763 131.942-85.077 219.563-233.301 219.563-401.681 0-263.492-214.374-477.867-477.867-477.867z" />
<glyph unicode="&#xe919;" glyph-name="search-1" d="M990 27.6l-235.6 235.6c58.4 71.2 93.6 162.4 93.6 261.8 0 228-185 413-413 413-228.2 0-413-185-413-413s184.8-413 413-413c99.4 0 190.4 35 261.6 93.4l235.6-235.4c16-16 41.8-16 57.8 0 16 15.8 16 41.8 0 57.6zM435 194.2c-182.6 0-331 148.4-331 330.8s148.4 331 331 331c182.4 0 331-148.6 331-331s-148.6-330.8-331-330.8z" />
<glyph unicode="&#xe91a;" glyph-name="place" d="M863.901 395.261l157.671-323.9c6.412-13.173-0.328-23.95-14.979-23.95h-989.189c-14.651 0-21.392 10.777-14.979 23.95l157.673 323.9c2.508 5.152 9.249 9.368 14.979 9.368h135.196c4.166 0 9.793-2.609 12.521-5.759 9.172-10.6 18.516-20.955 27.832-31.205 8.848-9.73 17.743-19.587 26.567-29.674h-160.445c-5.731 0-12.472-4.215-14.979-9.368l-104.451-214.575h829.356l-104.443 214.575c-2.506 5.153-9.248 9.368-14.98 9.368h-160.808c8.823 10.088 17.721 19.945 26.569 29.674 9.345 10.28 18.74 20.616 27.934 31.219 2.724 3.142 8.339 5.746 12.499 5.746h135.481c5.727 0 12.467-4.213 14.975-9.368zM743.807 616.612c0-176.985-147.339-210.178-216.633-380.26-5.63-13.821-25.088-13.75-30.72 0.067-62.509 153.351-188.466 195.403-212.565 332.017-23.728 134.49 69.389 266.232 205.35 279.084 138.273 13.071 254.568-95.337 254.568-230.907zM634.335 616.612c0 67.658-54.846 122.505-122.505 122.505s-122.505-54.848-122.505-122.505c0-67.659 54.846-122.505 122.505-122.505s122.505 54.846 122.505 122.505z" />
<glyph unicode="&#xe91b;" glyph-name="ticket" d="M117.344 960v-1024h104.777v35.61c0 17.84 14.515 32.353 32.355 32.353s32.355-14.513 32.355-32.353v-35.61h106.975v35.61c0 17.84 14.513 32.353 32.352 32.353s32.353-14.513 32.353-32.353v-35.61h106.976v35.61c0 17.84 14.513 32.353 32.352 32.353s32.352-14.513 32.352-32.353v-35.61h106.977v35.61c0 17.84 14.513 32.353 32.352 32.353 17.841 0 32.355-14.513 32.355-32.353v-35.61h104.777v1024h-104.775v-35.61c0-17.84-14.513-32.353-32.355-32.353-17.839 0-32.352 14.513-32.352 32.353v35.61h-106.977v-35.61c0-17.84-14.513-32.353-32.352-32.353s-32.353 14.513-32.353 32.353v35.61h-106.976v-35.61c0-17.84-14.515-32.353-32.353-32.353s-32.353 14.513-32.353 32.353v35.61h-106.975v-35.61c0-17.84-14.515-32.353-32.355-32.353s-32.355 14.513-32.355 32.353v35.61h-104.777zM254.476 820.817c35.68 0 67.207 18.139 85.843 45.677 18.635-27.538 50.161-45.677 85.842-45.677 35.682 0 67.208 18.135 85.843 45.677 18.634-27.542 50.159-45.677 85.842-45.677s67.209 18.136 85.843 45.677c18.633-27.542 50.157-45.677 85.843-45.677 25.017 0 47.992 8.916 65.912 23.736v-793.106c-17.92 14.819-40.895 23.736-65.912 23.736-35.684 0-67.209-18.136-85.843-45.677-18.633 27.543-50.157 45.677-85.843 45.677-35.682 0-67.209-18.135-85.843-45.677-18.634 27.543-50.158 45.677-85.843 45.677-35.679 0-67.206-18.139-85.842-45.677-18.635 27.539-50.162 45.677-85.843 45.677-25.018 0-47.992-8.916-65.912-23.736v793.106c17.921-14.82 40.895-23.736 65.913-23.736zM311.129 735.279h411.304v-71.22h-411.304v71.22zM311.129 587.369h411.304v-71.22h-411.304v71.22zM311.129 439.459h411.304v-71.22h-411.304v71.22zM459.481 225.798h262.951v-71.22h-262.951v71.22z" />
<glyph unicode="&#xe91c;" d="M642.168 629.323c0-177.331-143.753-321.084-321.084-321.084s-321.084 143.753-321.084 321.084 143.753 321.084 321.084 321.084 321.084-143.753 321.084-321.084z" />
<glyph unicode="&#xe91d;" d="M364.473 273.53v86.778h-86.778c0-47.928 38.851-86.778 86.778-86.778z" />
<glyph unicode="&#xe91e;" d="M364.473 256.17c-57.422 0-104.138 46.716-104.138 104.138 0 9.593 7.766 17.35 17.36 17.35h86.778c9.593 0 17.36-7.756 17.36-17.35v-86.778c0-9.593-7.766-17.36-17.36-17.36zM297.259 342.948c6.286-24.351 25.503-43.578 49.864-49.864v49.864z" />
<glyph unicode="&#xe91f;" d="M451.251 273.53v86.778h-86.778c0-47.928 38.851-86.778 86.778-86.778z" />
<glyph unicode="&#xe920;" d="M451.251 256.17c-57.422 0-104.128 46.716-104.128 104.138 0 9.593 7.756 17.35 17.35 17.35h86.778c9.593 0 17.36-7.756 17.36-17.35v-86.778c0-9.593-7.766-17.36-17.36-17.36zM384.037 342.948c6.286-24.351 25.503-43.578 49.864-49.864v49.864z" />
<glyph unicode="&#xe921;" d="M277.695 105.147v-144.031h535.179c107.018 0 193.767 96.431 193.767 204.681v628.403h-315.979c-92.836 0-180.379-35.077-236.778-109.67l-95.945-126.91c-3.675-4.856-11.173-0.070-8.312 5.303l90.781 170.538c0 57.511-46.090 95.458-102.946 95.458h-77.125v-411.854c0-45.723 27.976-82.796 73.173-82.796h74.245c33.041 0 65.923-4.658 97.663-13.824l50.758-14.668c12.732-3.675 21.501-15.344 21.501-28.602 0-16.396-13.139-29.674-29.337-29.674h-37.679c-46.309 0-92.091-9.822-134.329-28.81l-24.47-11.004c-40.062-18.015-74.166-58.197-74.166-102.539z" />
<glyph unicode="&#xe922;" d="M812.864-56.234h-535.169c-9.593 0-17.36 7.756-17.36 17.35v144.031c0 55.565 42.396 99.48 84.415 118.359l24.45 10.994c44.77 20.14 92.36 30.34 141.459 30.34h37.689c6.604 0 11.977 5.532 11.977 12.325 0 5.512-3.675 10.408-8.958 11.937l-50.748 14.658c-30.201 8.729-61.444 13.149-92.846 13.149h-74.255c-52.466 0.010-90.532 42.128-90.532 100.156v411.854c0 9.593 7.756 17.35 17.35 17.35h77.125c68.594 0 120.306-48.494 120.306-112.808 0-2.85-0.695-5.651-2.036-8.153l-17.211-32.306 1.51 1.996c56.836 75.169 145.829 116.562 250.632 116.562h315.979c9.593 0 17.36-7.766 17.36-17.36v-628.403c0-120.356-96.69-222.031-211.136-222.031zM295.054-21.525h517.81c95.627 0 176.427 85.785 176.427 187.321v611.053h-298.63c-93.661 0-172.832-36.507-222.934-102.797l-95.945-126.92c-7.101-9.315-19.932-11.639-29.793-5.323-9.901 6.326-13.189 18.899-7.687 29.277l88.645 166.506c-2.115 43.101-37.421 73.967-85.487 73.967h-59.766v-394.495c0-32.574 17.26-65.436 55.813-65.436h74.255c34.66 0 69.131-4.886 102.47-14.509l50.748-14.658c20.051-5.78 34.054-24.411 34.054-45.296 0-25.93-20.955-47.034-46.696-47.034h-37.679c-44.174 0-86.967-9.186-127.228-27.291l-24.45-10.994c-37.649-16.913-63.937-52.556-63.937-86.699v-126.672z" />
<glyph unicode="&#xe923;" d="M616.138 551.224c0-33.557-27.201-60.749-60.749-60.749s-60.749 27.191-60.749 60.749c0 33.547 27.201 60.739 60.749 60.739s60.749-27.191 60.749-60.739z" />
<glyph unicode="&#xe924;" d="M555.389 473.116c-43.071 0-78.099 35.037-78.099 78.108 0 43.061 35.027 78.099 78.099 78.099s78.099-35.037 78.099-78.099c0-43.071-35.027-78.108-78.099-78.108zM555.389 594.613c-23.934 0-43.389-19.455-43.389-43.389s19.455-43.389 43.389-43.389 43.389 19.455 43.389 43.389c0 23.934-19.455 43.389-43.389 43.389z" />
<glyph unicode="&#xe925;" d="M1006.641 256.17h-104.128c-52.635 0-95.458 42.833-95.458 95.458s42.823 95.458 95.458 95.458h104.128c9.593 0 17.36-7.766 17.36-17.36v-156.197c0-9.593-7.766-17.36-17.36-17.36zM902.513 412.377c-33.498 0-60.749-27.261-60.749-60.749 0-33.498 27.251-60.749 60.749-60.749h86.778v121.498z" />
<glyph unicode="&#xe926;" d="M980.323 47.894h-77.811c-52.635 0-95.458 42.833-95.458 95.458 0 52.635 42.823 95.458 95.458 95.458h104.128c9.593 0 17.36-7.756 17.36-17.35v-55.664c0-37.44-9.852-75.119-28.473-108.915-3.059-5.542-8.878-8.988-15.205-8.988zM902.513 204.101c-33.498 0-60.749-27.251-60.749-60.749 0-33.488 27.251-60.739 60.749-60.739h67.264c12.781 26.288 19.515 54.85 19.515 83.183v38.304z" />
<glyph unicode="&#xe927;" d="M1006.641 325.589h-78.099c-14.38 0-26.030 11.659-26.030 26.039s11.649 26.030 26.030 26.030h78.099z" />
<glyph unicode="&#xe928;" d="M1006.641 308.239h-78.099c-23.934 0-43.389 19.455-43.389 43.389s19.455 43.389 43.389 43.389h78.099c9.593 0 17.36-7.766 17.36-17.36v-52.069c0-9.593-7.766-17.35-17.36-17.35zM928.542 360.308c-4.777 0-8.68-3.903-8.68-8.68 0-4.787 3.903-8.68 8.68-8.68h60.749v17.36z" />
<glyph unicode="&#xe929;" d="M902.513 143.352c0-14.37 11.649-26.030 26.030-26.030h72.031c3.823 15.701 6.068 31.909 6.068 48.474v3.595h-78.099c-14.38 0-26.030-11.659-26.030-26.039z" />
<glyph unicode="&#xe92a;" d="M1000.583 99.963h-72.041c-23.934 0-43.389 19.455-43.389 43.389s19.455 43.389 43.389 43.389h78.099c9.593 0 17.36-7.756 17.36-17.35v-3.595c0-16.962-2.205-34.66-6.564-52.575-1.877-7.776-8.859-13.258-16.853-13.258zM928.542 152.032c-4.777 0-8.68-3.893-8.68-8.68 0-4.777 3.903-8.67 8.68-8.67h57.948c1.013 5.859 1.758 11.639 2.235 17.35z" />
<glyph unicode="&#xe92b;" d="M778.125 794.2l-57.63-71.534c-15.443-19.177-15.92-46.378-1.152-66.082 15.612-20.806 43.876-27.479 67.144-15.85l44.581 22.295c11.57 5.79 25.543 3.516 34.68-5.621 10.984-10.994 11.788-28.542 1.837-40.479l-37.192-44.631c-18.134-21.769-16.684-53.767 3.347-73.808 19.475-19.475 50.381-21.461 72.189-4.648l100.712 77.632v222.726z" />
<glyph unicode="&#xe92c;" d="M872.54 465.131c-18.591 0-37.113 7.121-51.066 21.084-26.556 26.566-28.463 68.346-4.409 97.206l37.182 44.611c4.241 5.065 3.903 12.424-0.775 17.101-3.883 3.863-9.752 4.777-14.668 2.374l-44.561-22.295c-30.796-15.393-68.128-6.574-88.774 20.965-19.564 26.049-18.949 61.99 1.51 87.364l57.62 71.534c3.297 4.102 8.253 6.475 13.506 6.475h228.535c9.593 0 17.36-7.756 17.36-17.35v-222.736c0-5.383-2.493-10.457-6.763-13.745l-100.712-77.642c-13-10.011-28.522-14.946-43.985-14.946zM844.505 683.577c12.295 0 24.411-4.797 33.518-13.894 17.449-17.449 18.69-44.909 2.91-63.867l-37.182-44.631c-12.493-14.966-11.51-36.646 2.264-50.42 13.248-13.238 34.451-14.648 49.328-3.188l93.949 72.438v196.835h-202.863l-52.427-65.069c-10.457-13.020-10.775-31.422-0.765-44.76 10.587-14.152 29.734-18.631 45.495-10.745l44.571 22.285c6.763 3.367 14.023 5.015 21.203 5.015z" />
<glyph unicode="&#xe92d;" d="M282.084 58.967c-5.373 0-10.656 2.473-14.053 7.15-5.641 7.746-3.923 18.591 3.833 24.242l61.136 44.472c62.318 45.316 135.977 69.27 213.033 69.27h9.355c38.285 0 69.429 31.134 69.429 69.429 0 38.285-31.144 69.419-69.429 69.419-38.622 0-72.15 26.169-81.525 63.659l-4.727 18.919c-1.311 5.184-0.139 10.676 3.148 14.877 3.287 4.231 8.342 6.684 13.685 6.684h52.059c9.593 0 17.36-7.766 17.36-17.36s-7.766-17.35-17.36-17.35h-29.754c6.366-20.577 25.374-34.719 47.113-34.719 57.422 0 104.138-46.706 104.138-104.128s-46.716-104.138-104.138-104.138h-9.355c-69.657 0-136.265-21.66-192.624-62.626l-61.136-44.482c-3.069-2.235-6.644-3.317-10.189-3.317z" />
<glyph unicode="&#xe92e;" d="M561.070 99.963h-75.099c-9.593 0-17.36 7.766-17.36 17.36s7.766 17.36 17.36 17.36h75.099c31.184 0 61.067 11.54 84.137 32.524l8.064 7.349c26.049 23.666 40.966 57.392 40.966 92.548v41.135c0 47.848-38.93 86.778-86.778 86.778-9.593 0-17.36 7.766-17.36 17.36s7.766 17.35 17.36 17.35c66.986 0 121.488-54.502 121.488-121.488v-41.135c0-44.919-19.068-88.020-52.307-118.22l-8.064-7.359c-29.486-26.794-67.681-41.562-107.505-41.562z" />
<glyph unicode="&#xe92f;" d="M271.428 432.627h-11.093c-9.593 0-17.35 7.766-17.35 17.36s7.756 17.35 17.35 17.35h11.093c34.799 0 68.644 10.001 97.842 28.919l107.256 69.518c8.034 5.244 18.78 2.9 24.004-5.115 5.214-8.054 2.93-18.8-5.124-24.004l-107.256-69.518c-34.838-22.573-75.218-34.511-116.721-34.511z" />
<glyph unicode="&#xe930;" d="M625.682 543.369c-6.982 0-13.586 4.251-16.227 11.173-3.406 8.958 1.092 18.998 10.030 22.405 34.868 13.278 57.392 40.648 57.392 69.736 0 43.061-46.706 78.099-104.128 78.099s-104.138-35.037-104.138-78.099c0-22.484 13.099-43.955 35.951-58.882 8.034-5.244 10.289-16.009 5.035-24.023-5.224-8.034-15.989-10.279-24.023-5.025-32.842 21.471-51.672 53.519-51.672 87.93 0 62.199 62.278 112.808 138.847 112.808 76.559 0 138.847-50.609 138.847-112.808 0-43.618-31.313-83.72-79.727-102.172-2.036-0.785-4.141-1.142-6.187-1.142z" />
<glyph unicode="&#xe931;" d="M260.335 759.49c47.928 0 86.788-34.968 86.788-78.099s-38.861-78.108-86.788-78.108z" />
<glyph unicode="&#xe932;" d="M260.335 585.934c-9.593 0-17.35 7.756-17.35 17.35v156.207c0 9.593 7.756 17.36 17.35 17.36 57.422 0 104.138-42.833 104.138-95.458s-46.716-95.458-104.138-95.458zM277.695 740.224v-117.664c29.913 6.763 52.069 30.578 52.069 58.832s-22.156 52.069-52.069 58.832z" />
<glyph unicode="&#xe933;" d="M935.614 406.714c0-168.75-136.798-305.557-305.548-305.557s-305.548 136.807-305.548 305.557c0 168.741 136.798 305.548 305.548 305.548s305.548-136.807 305.548-305.548z" />
<glyph unicode="&#xe934;" d="M291.48 794.841c0-45.609-36.971-82.579-82.579-82.579s-82.579 36.971-82.579 82.579 36.971 82.579 82.579 82.579 82.579-36.971 82.579-82.579z" />
<glyph unicode="&#xe935;" d="M208.9 695.742c-54.643 0-99.090 44.456-99.090 99.099s44.446 99.090 99.090 99.090 99.099-44.446 99.099-99.090-44.456-99.099-99.099-99.099zM208.9 860.901c-36.423 0-66.060-29.628-66.060-66.060 0-36.442 29.637-66.069 66.060-66.069 36.432 0 66.069 29.628 66.069 66.069 0 36.432-29.637 66.060-66.069 66.060z" />
<glyph unicode="&#xe936;" d="M572.257 794.841c0-45.609-36.971-82.579-82.579-82.579s-82.579 36.971-82.579 82.579 36.971 82.579 82.579 82.579c45.609 0 82.579-36.971 82.579-82.579z" />
<glyph unicode="&#xe937;" d="M489.678 695.742c-54.643 0-99.099 44.456-99.099 99.099s44.456 99.090 99.099 99.090c54.643 0 99.099-44.446 99.099-99.090s-44.456-99.099-99.099-99.099zM489.678 860.901c-36.423 0-66.069-29.628-66.069-66.060 0-36.442 29.647-66.069 66.069-66.069 36.432 0 66.060 29.628 66.060 66.069 0 36.432-29.628 66.060-66.060 66.060z" />
<glyph unicode="&#xe938;" d="M109.811 760.772h478.966v-114.579h-478.966z" />
<glyph unicode="&#xe939;" d="M588.777 629.673h-478.966c-9.129 0-16.52 7.39-16.52 16.52v114.579c0 9.129 7.39 16.52 16.52 16.52h478.966c9.129 0 16.51-7.39 16.51-16.52v-114.579c0-9.129-7.381-16.52-16.51-16.52zM126.321 662.712h445.936v81.549h-445.936z" />
<glyph unicode="&#xe93a;" d="M101.551 646.193l-57.809-126.629v-5.5c0-31.924 25.885-57.809 57.809-57.809l-31.735-69.509c-14.696-32.189-2.051-70.275 28.994-87.267l60.541-33.153v379.867z" />
<glyph unicode="&#xe93b;" d="M159.351 249.806c-2.722 0-5.453 0.68-7.929 2.032l-60.541 33.162c-38.426 21.046-54.275 68.753-36.092 108.616l22.861 50.060c-29.297 9.989-50.428 37.765-50.428 70.388v5.5c0 2.372 0.51 4.716 1.493 6.852l57.809 126.629c2.684 5.888 8.553 9.668 15.026 9.668h57.8c9.129 0 16.52-7.39 16.52-16.52v-379.867c0-5.84-3.081-11.246-8.099-14.214-2.599-1.531-5.51-2.306-8.42-2.306zM60.261 515.963v-1.9c0-22.776 18.523-41.29 41.29-41.29 5.614 0 10.849-2.854 13.892-7.579s3.459-10.679 1.125-15.792l-31.735-69.5c-11.038-24.194-1.408-53.16 21.916-65.937l36.082-19.771v335.478h-30.677z" />
<glyph unicode="&#xe93c;" d="M159.351 646.193h379.877v-379.867h-379.877z" />
<glyph unicode="&#xe93d;" d="M539.227 249.806h-379.877c-9.12 0-16.51 7.39-16.51 16.52v379.867c0 9.129 7.39 16.52 16.51 16.52h379.877c9.129 0 16.51-7.39 16.51-16.52v-379.867c0-9.129-7.381-16.52-16.51-16.52zM175.87 282.836h346.837v346.837h-346.837z" />
<glyph unicode="&#xe93e;" d="M109.811 745.292c-9.129 0-16.52 7.381-16.52 16.51v115.619c0 9.129 7.39 16.51 16.52 16.51 9.12 0 16.51-7.381 16.51-16.51v-115.619c0-9.129-7.39-16.51-16.51-16.51z" />
<glyph unicode="&#xe93f;" d="M588.777 745.292c-9.129 0-16.52 7.381-16.52 16.51v115.619c0 9.129 7.39 16.51 16.52 16.51s16.51-7.381 16.51-16.51v-115.619c0-9.129-7.381-16.51-16.51-16.51z" />
<glyph unicode="&#xe940;" d="M407.098 761.802h-115.619v121.119l58.112 60.559 57.507-60.559z" />
<glyph unicode="&#xe941;" d="M407.098 745.292h-115.619c-9.12 0-16.51 7.381-16.51 16.51v121.119c0 4.253 1.644 8.354 4.593 11.435l58.102 60.569c3.119 3.242 7.419 5.075 11.927 5.075h0.038c4.517-0.019 8.836-1.871 11.936-5.141l57.507-60.569c2.92-3.062 4.546-7.145 4.546-11.369v-121.119c-0.009-9.129-7.4-16.51-16.52-16.51zM307.999 778.322h82.579v98.003l-41.053 43.237-41.526-43.284z" />
<glyph unicode="&#xe942;" d="M597.037 646.193l53.103-116.337c3.1-6.776 4.697-14.148 4.697-21.595 0-28.72-23.277-51.997-51.997-51.997h-5.803l37.727-82.636c11.312-24.798 1.569-54.124-22.332-67.213l-73.204-40.089v379.867z" />
<glyph unicode="&#xe943;" d="M539.227 249.806c-2.92 0-5.822 0.775-8.42 2.306-5.018 2.967-8.099 8.373-8.099 14.214v379.867c0 9.129 7.39 16.52 16.52 16.52h57.809c6.464 0 12.333-3.78 15.026-9.668l53.112-116.337c4.035-8.836 6.181-18.693 6.181-28.456 0-31.291-21.094-57.753-49.805-65.918l28.238-61.864c14.847-32.491 1.928-71.39-29.42-88.552l-73.204-40.080c-2.486-1.351-5.217-2.032-7.939-2.032zM555.737 629.673v-335.478l48.765 26.689c16.227 8.893 22.918 29.032 15.244 45.873l-37.746 82.646c-2.325 5.113-1.909 11.067 1.144 15.792 3.024 4.725 8.269 7.579 13.883 7.579h5.803c19.563 0 35.487 15.915 35.487 35.487 0 5.066-1.115 10.14-3.194 14.724l-48.699 106.688z" />
<glyph unicode="&#xe944;" d="M447.953 360.794l-0.586 0.624c-22.492 23.645-53.708 37.037-86.35 37.037h-23.456c-32.633 0-63.848-13.382-86.341-37.037l-0.595-0.624c-15.499-16.293-40.628-18.703-58.943-5.642l-32.321 23.059v-162.428c0-38.379 15.414-75.161 42.783-102.067l20.527-20.186c0-68.763 55.74-124.502 124.502-124.502h4.243c68.763 0 124.502 55.749 124.502 124.502l20.527 20.186c27.369 26.906 42.783 63.688 42.783 102.067v162.428l-32.331-23.059c-18.306-13.061-43.435-10.651-58.943 5.642z" />
<glyph unicode="&#xe945;" d="M351.415-47.482h-4.243c-75.378 0-137.138 59.444-140.833 133.915l-15.773 15.508c-30.327 29.817-47.726 71.314-47.726 113.851v162.418c0 6.181 3.459 11.851 8.95 14.677 5.5 2.826 12.106 2.372 17.162-1.229l32.321-23.059c11.539-8.241 27.624-6.691 37.387 3.582 26.084 27.416 61.911 42.783 98.901 42.783h23.456c36.99 0 72.826-15.367 98.315-42.159l-11.369-12.012 11.964 11.388c9.753-10.273 25.829-11.823 37.396-3.582l32.302 23.059c5.037 3.601 11.653 4.064 17.162 1.229 5.5-2.826 8.95-8.496 8.95-14.677v-162.418c0-42.537-17.399-84.035-47.726-113.851l-15.754-15.508c-3.714-74.471-65.464-133.915-140.842-133.915zM175.87 346.127v-130.333c0-33.729 13.798-66.646 37.859-90.31l20.517-20.177c3.157-3.1 4.943-7.334 4.943-11.775 0-59.548 48.434-107.983 107.983-107.983h4.234c59.548 0 107.992 48.434 107.992 107.983 0 4.432 1.777 8.676 4.933 11.775l20.517 20.177c24.071 23.664 37.859 56.581 37.859 90.31v130.333l-6.209-4.432c-24.846-17.673-59.454-14.431-80.51 7.712 0 0-0.009 0.009-0.019 0.009l-0.595 0.633c-19.27 20.253-46.384 31.886-74.367 31.886h-23.456c-27.974 0-55.097-11.624-74.376-31.905-21.642-22.729-56.259-26.036-81.086-8.335z" />
<glyph unicode="&#xe946;" d="M225.429 84.647c-1.446 0-2.911 0.189-4.366 0.576-8.799 2.419-13.987 11.501-11.577 20.29l43.813 160.112c2.41 8.808 11.492 13.902 20.281 11.586 8.799-2.419 13.977-11.501 11.568-20.29l-43.804-160.112c-2.004-7.343-8.657-12.163-15.915-12.163z" />
<glyph unicode="&#xe947;" d="M473.158 84.647c-6.549 0-12.749 3.913-15.338 10.386l-66.060 165.159c-3.393 8.468 0.737 18.088 9.205 21.472 8.496 3.402 18.079-0.728 21.472-9.214l66.060-165.159c3.393-8.468-0.737-18.079-9.205-21.462-2.004-0.813-4.083-1.181-6.133-1.181z" />
<glyph unicode="&#xe948;" d="M357.549 381.935c-36.423 0-66.069 29.628-66.069 66.069v72.401c-28.947 13.146-45.023 5.576-55.938-2.873-7.211-5.595-17.578-4.309-23.182 2.939-5.585 7.211-4.272 17.578 2.939 23.154 28.39 22.001 62.223 22.483 100.649 1.436 5.273-2.901 8.572-8.449 8.572-14.478v-82.579c0-18.211 14.809-33.039 33.030-33.039 9.12 0 16.52-7.381 16.52-16.51s-7.4-16.52-16.52-16.52z" />
<glyph unicode="&#xe949;" d="M473.158 514.064h-66.060c-9.12 0-16.52 7.39-16.52 16.52s7.4 16.51 16.52 16.51h66.060c9.129 0 16.52-7.381 16.52-16.51s-7.39-16.52-16.52-16.52z" />
<glyph unicode="&#xe94a;" d="M836.515-64.001c-9.129 0-16.51 7.39-16.51 16.52v908.383c0 9.129 7.381 16.52 16.51 16.52s16.52-7.39 16.52-16.52v-908.383c0-9.129-7.39-16.52-16.52-16.52z" />
<glyph unicode="&#xe94b;" d="M829.417 603.892c-9.129 0-16.52 7.381-16.52 16.51s7.39 16.52 16.52 16.52c45.713 0 82.901 37.188 82.901 82.901v14.11c0 42.679 23.712 81.067 61.892 100.148 8.156 4.045 18.079 0.775 22.162-7.39 4.073-8.156 0.775-18.079-7.39-22.152-26.925-13.458-43.624-40.505-43.624-70.605v-14.11c0-63.914-52.016-115.931-115.94-115.931z" />
<glyph unicode="&#xe94c;" d="M843.612 603.892c-63.914 0-115.931 52.016-115.931 115.931v14.11c0 30.1-16.709 57.148-43.633 70.605-8.156 4.073-11.464 13.996-7.381 22.152 4.092 8.165 14.015 11.445 22.162 7.39 38.171-19.081 61.883-57.469 61.883-100.148v-14.11c0-45.713 37.198-82.901 82.901-82.901 9.129 0 16.52-7.39 16.52-16.52s-7.39-16.51-16.52-16.51z" />
<glyph unicode="&#xe94d;" d="M616.063 388.711c0-170.122-137.91-308.031-308.031-308.031s-308.031 137.91-308.031 308.031 137.91 308.041 308.031 308.041 308.031-137.919 308.031-308.041z" />
<glyph unicode="&#xe94e;" d="M605.221 596.847l-389.148-566.12h609.927l-219.455 564.253z" />
<glyph unicode="&#xe94f;" d="M826 14.083h-609.927c-6.183 0-11.862 3.42-14.739 8.899-2.877 5.469-2.487 12.081 1.010 17.187l389.157 566.11c3.087 4.487 8.155 7.174 13.605 7.212h0.114c5.402 0 10.471-2.611 13.596-7.031l1.315-1.858c0.781-1.115 1.429-2.315 1.915-3.582l219.464-564.253c2.001-5.116 1.334-10.89-1.772-15.434-3.106-4.535-8.241-7.25-13.739-7.25zM247.723 47.381h553.934l-200.162 514.643z" />
<glyph unicode="&#xe950;" d="M300.381 366.445l-225.457-335.718h376.048l-148.371 332.831z" />
<glyph unicode="&#xe951;" d="M450.971 14.083h-376.048c-6.145 0-11.804 3.382-14.691 8.822-2.896 5.421-2.553 12.005 0.877 17.111l225.457 335.709c3.001 4.459 7.955 7.203 13.319 7.365 5.316 0.248 10.49-2.287 13.739-6.536l2.21-2.896c0.781-1.019 1.448-2.144 1.972-3.325l148.371-332.822c2.296-5.154 1.839-11.109-1.229-15.844-3.077-4.735-8.327-7.584-13.977-7.584zM106.164 47.381h319.15l-127.334 285.623z" />
<glyph unicode="&#xe952;" d="M302.601 366.988l148.371-327.934h106.812z" />
<glyph unicode="&#xe953;" d="M557.784 22.41h-106.812c-6.526 0-12.471 3.83-15.168 9.785l-148.371 327.925c-3.478 7.689-0.648 16.759 6.564 21.113 7.241 4.364 16.568 2.63 21.742-4.021l255.192-327.925c3.906-5.030 4.611-11.833 1.82-17.55-2.801-5.707-8.603-9.327-14.968-9.327zM461.728 55.708h62.014l-148.171 190.396z" />
<glyph unicode="&#xe954;" d="M606.545 595.008l219.455-564.281h181.345z" />
<glyph unicode="&#xe955;" d="M1007.345 14.083h-181.345c-6.86 0-13.024 4.211-15.511 10.614l-219.464 564.281c-3.058 7.832 0.21 16.711 7.603 20.694 7.431 4.021 16.625 1.82 21.484-5.021l400.81-564.272c3.611-5.088 4.078-11.747 1.22-17.283s-8.565-9.013-14.796-9.013zM837.385 47.381h137.719l-304.373 428.487z" />
<glyph unicode="&#xe956;" d="M582.764 380.393h-49.952c-9.203 0-16.654 7.45-16.654 16.644s7.45 16.654 16.654 16.654h49.952c9.203 0 16.654-7.46 16.654-16.654s-7.45-16.644-16.654-16.644z" />
<glyph unicode="&#xe957;" d="M549.466 313.787h-66.606c-9.203 0-16.644 7.46-16.644 16.654s7.441 16.644 16.644 16.644h66.606c9.204 0 16.644-7.45 16.644-16.644s-7.441-16.654-16.644-16.654z" />
<glyph unicode="&#xe958;" d="M666.015 247.19h-66.597c-9.204 0-16.654 7.45-16.654 16.644s7.45 16.654 16.654 16.654h66.597c9.204 0 16.654-7.46 16.654-16.654s-7.45-16.644-16.654-16.644z" />
<glyph unicode="&#xe959;" d="M599.418 163.93h-66.606c-9.203 0-16.654 7.46-16.654 16.654s7.45 16.654 16.654 16.654h66.606c9.203 0 16.644-7.46 16.644-16.654s-7.441-16.654-16.644-16.654z" />
<glyph unicode="&#xe95a;" d="M349.657 97.333h-66.597c-9.204 0-16.654 7.45-16.654 16.654 0 9.194 7.45 16.644 16.654 16.644h66.597c9.203 0 16.654-7.45 16.654-16.644 0-9.204-7.45-16.654-16.654-16.654z" />
<glyph unicode="&#xe95b;" d="M299.704 163.93h-49.952c-9.204 0-16.644 7.46-16.644 16.654s7.441 16.654 16.644 16.654h49.952c9.204 0 16.654-7.46 16.654-16.654s-7.45-16.654-16.654-16.654z" />
<glyph unicode="&#xe95c;" d="M266.406 699.124c0-38.091-30.888-68.979-68.979-68.979-38.1 0-68.988 30.888-68.988 68.979 0 38.1 30.888 68.988 68.988 68.988 38.091 0 68.979-30.888 68.979-68.988z" />
<glyph unicode="&#xe95d;" d="M197.418 613.491c-47.227 0-85.623 38.424-85.623 85.633 0 47.218 38.405 85.642 85.623 85.642s85.642-38.424 85.642-85.642c0-47.208-38.424-85.633-85.642-85.633zM197.418 751.468c-28.849 0-52.325-23.485-52.325-52.334s23.476-52.334 52.325-52.334c28.859 0 52.334 23.476 52.334 52.325 0 28.859-23.476 52.344-52.334 52.344z" />
<glyph unicode="&#xe95e;" d="M199.809 813.301c-9.203 0-16.654 7.45-16.654 16.654v33.298c0 9.194 7.45 16.644 16.654 16.644s16.644-7.45 16.644-16.644v-33.298c0-9.203-7.441-16.654-16.644-16.654z" />
<glyph unicode="&#xe95f;" d="M199.809 496.942c-9.203 0-16.654 7.46-16.654 16.654v33.298c0 9.194 7.45 16.654 16.654 16.654s16.644-7.46 16.644-16.654v-33.298c0-9.194-7.441-16.654-16.644-16.654z" />
<glyph unicode="&#xe960;" d="M66.606 680.098h-49.952c-9.203 0-16.654 7.45-16.654 16.654 0 9.194 7.45 16.644 16.654 16.644h49.952c9.203 0 16.644-7.45 16.644-16.644 0-9.203-7.441-16.654-16.644-16.654z" />
<glyph unicode="&#xe961;" d="M382.955 680.098h-49.943c-9.203 0-16.654 7.45-16.654 16.654 0 9.194 7.45 16.644 16.654 16.644h49.943c9.203 0 16.654-7.45 16.654-16.644 0-9.203-7.45-16.654-16.654-16.654z" />
<glyph unicode="&#xe962;" d="M101.982 774.048c-4.392 0-8.756 1.724-12.033 5.135l-23.018 24.066c-6.364 6.641-6.136 17.187 0.514 23.542 6.65 6.326 17.207 6.117 23.542-0.524l23.028-24.057c6.355-6.65 6.126-17.187-0.524-23.552-3.211-3.077-7.355-4.611-11.509-4.611z" />
<glyph unicode="&#xe963;" d="M320.655 545.428c-4.392 0-8.765 1.724-12.033 5.135l-23.028 24.066c-6.355 6.641-6.126 17.187 0.524 23.542 6.631 6.345 17.207 6.117 23.542-0.514l23.018-24.066c6.364-6.65 6.136-17.187-0.514-23.542-3.22-3.077-7.365-4.621-11.509-4.621z" />
<glyph unicode="&#xe964;" d="M297.627 774.048c-4.144 0-8.279 1.534-11.519 4.611-6.65 6.364-6.869 16.911-0.514 23.552l23.018 24.057c6.355 6.66 16.864 6.869 23.542 0.524 6.66-6.355 6.879-16.902 0.524-23.542l-23.028-24.066c-3.258-3.411-7.631-5.135-12.024-5.135z" />
<glyph unicode="&#xe965;" d="M78.963 545.428c-4.144 0-8.279 1.534-11.519 4.621-6.65 6.355-6.879 16.902-0.514 23.542l23.018 24.066c6.355 6.65 16.883 6.869 23.542 0.514 6.65-6.355 6.879-16.902 0.524-23.542l-23.028-24.066c-3.258-3.411-7.631-5.135-12.024-5.135z" />
<glyph unicode="&#xe966;" d="M1024.002 535.21c0-186.829-151.453-338.282-338.282-338.282s-338.282 151.453-338.282 338.282 151.453 338.282 338.282 338.282 338.282-151.453 338.282-338.282z" />
<glyph unicode="&#xe967;" d="M566.859 349.302v-307.803s6.33 146.284 82.282 201.142c0 0-44.301 67.047-12.65 106.661z" />
<glyph unicode="&#xe968;" d="M566.869 23.219c-0.146 0-0.283 0-0.429 0-9.929 0.23-17.871 8.339-17.871 18.279v307.814c0 10.097 8.193 18.279 18.289 18.279h69.621c7.021 0 13.424-4.028 16.469-10.358 3.055-6.33 2.197-13.843-2.187-19.336-22.558-28.24 13.278-84.646 13.654-85.201 5.357-8.182 3.348-19.147-4.572-24.871-67.801-48.978-74.665-185.751-74.727-187.132-0.429-9.793-8.496-17.473-18.248-17.473zM585.148 331.023v-140.226c10.327 20.895 23.552 40.544 40.482 56.166-9.657 18.718-23.479 52.629-17.159 84.060z" />
<glyph unicode="&#xe969;" d="M220.855 37.951c-1.371 0-2.72 0-4.070 0.021-50.171 0.848-89.020 17.159-112.363 47.157-37.039 47.618-31.839 84.134-20.958 106.389 19.231 39.32 70.082 60.267 99.399 60.267 23.877 0 47.785-11.792 63.971-31.536 16.846-20.529 23.207-46.32 17.955-72.624-4.070-20.361-16.678-35.041-34.591-40.283-17.536-5.169-37.709 0.063-50.15 12.985-11.196 11.614-14.627 27.256-9.406 42.93 3.191 9.584 13.539 14.784 23.123 11.562 9.595-3.191 14.774-13.539 11.572-23.123-1.015-3.045-0.356-4.551 1.036-5.995 2.679-2.762 8.486-4.729 13.55-3.264 4.604 1.35 7.638 5.514 9.009 12.367 3.076 15.349-0.617 30.364-10.369 42.26-9.176 11.196-22.851 18.153-35.7 18.153-16.448 0-53.77-13.654-66.545-39.76-9.176-18.76-3.463-41.601 16.982-67.874 20.591-26.482 57.097-32.582 84.102-33.042 82.439-1.768 183.010 44.479 234.834 106.661 87.011 104.411 105.855 174.953 106.033 175.654 2.522 9.762 12.462 15.59 22.213 13.194 9.762-2.48 15.695-12.357 13.246-22.129-0.785-3.149-20.372-78.484-113.409-190.125-57.338-68.837-168.184-119.844-259.464-119.844z" />
<glyph unicode="&#xe96a;" d="M18.289 463.883s137.14-43.15 301.714 77.678c164.564 120.838 344.215 78.996 457.133 0 100.571-70.354 191.998-94.932 191.998-94.932s-393.747-204.815-729.225-45.514c-60.048 28.501-124.992 46.676-191.182 57.704z" />
<glyph unicode="&#xe96b;" d="M526.953 321.616c-95.727 0-197.334 16.657-294.892 62.977-51.478 24.442-110.7 42.731-176.167 54.429-25.708 2.155-41.204 6.822-43.097 7.418-9.155 2.877-14.523 12.367-12.294 21.7 2.239 9.344 11.279 15.339 20.801 13.78l30.437-5.075c3.296-0.544 6.571-1.099 9.825-1.695 49.438-3.641 141.764 3.453 247.62 81.152 172.222 126.467 360.056 83.056 478.435 0.241 96.48-67.487 185.396-92.023 186.274-92.264 7.282-1.967 12.608-8.193 13.414-15.695 0.816-7.492-3.045-14.701-9.731-18.185-11.698-6.079-212.945-108.785-450.624-108.785zM168.853 448.732c27.832-8.988 54.178-19.367 78.892-31.107 261.535-124.197 564.17-19.064 672.139 26.618-37.134 14.533-93.435 40.503-153.222 82.345-107.99 75.533-279.166 115.24-435.84 0.241-58.834-43.202-114.33-66.357-161.969-78.097z" />
<glyph unicode="&#xe96c;" d="M675.581 483.794c0-66.995-54.314-121.309-121.309-121.309s-121.299 54.314-121.299 121.309 54.303 121.309 121.299 121.309c66.995 0 121.309-54.314 121.309-121.309z" />
<glyph unicode="&#xe96d;" d="M554.282 344.206c-76.977 0-139.599 62.611-139.599 139.588 0 76.967 62.622 139.588 139.599 139.588 76.967 0 139.588-62.622 139.588-139.588 0-76.977-62.622-139.588-139.588-139.588zM554.282 586.814c-56.815 0-103.030-46.205-103.030-103.020 0-56.804 46.215-103.020 103.030-103.020 56.804 0 103.009 46.215 103.009 103.020 0 56.815-46.215 103.020-103.009 103.020z" />
<glyph unicode="&#xe96e;" d="M579.729 483.794c0-14.052-11.394-25.457-25.457-25.457-14.052 0-25.446 11.405-25.446 25.457 0 14.062 11.394 25.457 25.446 25.457 14.062 0 25.457-11.394 25.457-25.457z" />
<glyph unicode="&#xe96f;" d="M27.445 571.778c-6.623 0-13.006 3.599-16.26 9.888-4.646 8.967-1.13 19.995 7.847 24.641 5.388 2.804 544.656 275.975 969.238-0.921 8.454-5.514 10.84-16.846 5.326-25.31s-16.846-10.85-25.31-5.315c-406.92 265.375-927.25 1.747-932.46-0.931-2.679-1.392-5.556-2.051-8.381-2.051z" />
<glyph unicode="&#xe970;" d="M1023.998 515.353c0-177.33-143.753-321.083-321.083-321.083s-321.083 143.753-321.083 321.083 143.753 321.083 321.083 321.083 321.083-143.753 321.083-321.083z" />
<glyph unicode="&#xe971;" d="M607.457 680.239h86.778v156.197c-47.928 0-86.778-38.851-86.778-86.778z" />
<glyph unicode="&#xe972;" d="M694.235 662.88h-86.778c-9.593 0-17.35 7.776-17.35 17.36v69.419c0 57.422 46.706 104.138 104.128 104.138 9.593 0 17.36-7.776 17.36-17.36v-156.197c0-9.584-7.766-17.36-17.36-17.36zM624.817 697.589h52.069v119.303c-29.922-7.736-52.069-34.948-52.069-67.234z" />
<glyph unicode="&#xe973;" d="M695.834 55.423l-1.599 277.694 99.609-8.59 46.448-38.712c40.301-33.577 99.56-30.896 136.642 6.197 39.615 39.605 39.615 103.83 0 143.435l-281.1 281.1c-184.024 0-333.209-149.185-333.209-333.219v-327.906z" />
<glyph unicode="&#xe974;" d="M695.834 38.063h-333.219c-9.584 0-17.35 7.776-17.35 17.36v327.906c0 193.309 157.259 350.579 350.569 350.579 4.608 0 9.008-1.837 12.265-5.085l281.1-281.11c22.444-22.434 34.799-52.258 34.799-83.988 0-31.72-12.354-61.543-34.799-83.978-43.707-43.737-112.53-46.815-160.020-7.27l-42.267 35.226-75.218 6.495 1.49-258.666c0.040-4.618-1.798-9.067-5.045-12.344-3.257-3.277-7.677-5.124-12.305-5.124zM379.975 72.782h298.401l-1.49 260.235c-0.040 4.886 1.996 9.554 5.591 12.861 3.555 3.317 8.412 4.956 13.258 4.529l99.609-8.59c3.535-0.298 6.892-1.688 9.623-3.953l46.438-38.712c33.617-27.996 82.289-25.821 113.255 5.144 15.89 15.88 24.629 36.974 24.629 59.438 0 22.454-8.739 43.558-24.629 59.438l-275.946 275.956c-170.885-3.814-308.739-144.011-308.739-315.79z" />
<glyph unicode="&#xe975;" d="M694.235 333.117l-26.516 13.258c-47.56 23.785-77.612 72.408-77.612 125.589z" />
<glyph unicode="&#xe976;" d="M694.225 315.757c-2.622 0-5.263 0.586-7.746 1.837l-26.526 13.258c-53.797 26.903-87.205 80.968-87.205 141.111 0 9.584 7.766 17.36 17.36 17.36s17.35-7.776 17.35-17.36c0-46.915 26.069-89.082 68.018-110.057l26.526-13.268c8.58-4.28 12.046-14.708 7.766-23.288-3.059-6.078-9.176-9.593-15.542-9.593z" />
<glyph unicode="&#xe977;" d="M142.71 55.423h395.328v177.509c0 112.847-91.486 204.323-204.323 204.323h-316.356z" />
<glyph unicode="&#xe978;" d="M538.039 38.063h-395.328c-7.508 0-14.162 4.817-16.496 11.947l-125.351 381.832c-1.738 5.283-0.824 11.083 2.433 15.592 3.267 4.509 8.491 7.18 14.062 7.18h316.356c122.232 0 221.673-99.45 221.673-221.683v-177.509c0-9.584-7.756-17.36-17.35-17.36zM155.273 72.782h365.406v160.149c0 103.095-83.868 186.963-186.963 186.963h-292.392z" />
<glyph unicode="&#xe979;" d="M332.246 315.757h-270.266c-9.584 0-17.35 7.776-17.35 17.36s7.766 17.36 17.35 17.36h270.266c9.584 0 17.36-7.776 17.36-17.36s-7.766-17.36-17.36-17.36z" />
<glyph unicode="&#xe97a;" d="M260.344 228.979h-173.566c-9.584 0-17.35 7.776-17.35 17.36s7.766 17.36 17.35 17.36h173.566c9.584 0 17.35-7.776 17.35-17.36s-7.766-17.36-17.35-17.36z" />
<glyph unicode="&#xe97b;" d="M208.276 142.201h-86.778c-9.593 0-17.36 7.776-17.36 17.36s7.766 17.35 17.36 17.35h86.778c9.584 0 17.35-7.766 17.35-17.35s-7.766-17.36-17.35-17.36z" />
<glyph unicode="&#xe97c;" d="M781.013 489.323c-4.439 0-8.878 1.698-12.265 5.085l-34.709 34.709c-6.783 6.783-6.783 17.767 0 24.54 6.773 6.783 17.757 6.783 24.54 0l34.709-34.709c6.773-6.773 6.773-17.767 0-24.54-3.387-3.387-7.826-5.085-12.275-5.085z" />
<glyph unicode="&#xe97d;" d="M681.249 443.084c0-165.922-134.505-300.426-300.426-300.426s-300.426 134.505-300.426 300.426 134.505 300.426 300.426 300.426 300.426-134.505 300.426-300.426z" />
<glyph unicode="&#xe97e;" d="M142.552 123.637c-25.368 25.368-66.495 25.368-91.863 0s-25.368-66.495 0-91.863c25.368-25.368 66.495-25.368 91.863 0s25.368 66.495 0 91.863z" />
<glyph unicode="&#xe97f;" d="M96.63-3.499c-21.697 0-42.084 8.456-57.407 23.788-15.332 15.323-23.788 35.719-23.788 57.407 0 21.697 8.456 42.094 23.788 57.417 15.314 15.332 35.71 23.779 57.407 23.779s42.094-8.447 57.417-23.779c15.332-15.323 23.779-35.719 23.779-57.417 0-21.688-8.447-42.066-23.779-57.407-15.341-15.332-35.719-23.788-57.417-23.788zM96.63 126.415c-13.018 0-25.247-5.074-34.437-14.273-9.199-9.199-14.282-21.419-14.282-34.446 0-13.018 5.083-25.247 14.282-34.437 18.389-18.399 50.494-18.399 68.883 0 9.199 9.199 14.282 21.419 14.282 34.437 0 13.028-5.083 25.247-14.282 34.446s-21.428 14.273-34.446 14.273z" />
<glyph unicode="&#xe980;" d="M85.154 226.985l160.755-160.764-68.892-68.892-160.764 160.755z" />
<glyph unicode="&#xe981;" d="M177.017-18.924c-4.312 0-8.437 1.71-11.485 4.758l-160.774 160.774c-3.048 3.048-4.758 7.174-4.758 11.485s1.71 8.428 4.758 11.476l68.911 68.892c6.337 6.337 16.614 6.337 22.961 0l160.755-160.764c6.347-6.337 6.347-16.614 0-22.961l-68.883-68.902c-3.048-3.048-7.174-4.758-11.485-4.758zM39.204 158.083l137.813-137.813 45.922 45.941-137.794 137.794z" />
<glyph unicode="&#xe982;" d="M280.355 353.294l91.863-91.863-160.755-160.755-91.863 91.863z" />
<glyph unicode="&#xe983;" d="M211.463 84.424c-4.154 0-8.307 1.589-11.476 4.758l-91.872 91.872c-6.347 6.337-6.347 16.614 0 22.961l160.755 160.755c6.347 6.347 16.624 6.347 22.97 0l91.863-91.863c6.347-6.347 6.347-16.624 0-22.961l-160.755-160.764c-3.169-3.169-7.332-4.758-11.485-4.758zM142.561 192.529l68.902-68.902 137.794 137.794-68.902 68.902z" />
<glyph unicode="&#xe984;" d="M973.303 107.394c-25.368 25.368-66.495 25.368-91.863 0s-25.368-66.495 0-91.863c25.368-25.368 66.495-25.368 91.863 0s25.368 66.495 0 91.863z" />
<glyph unicode="&#xe985;" d="M927.39-19.732c-21.697 0-42.075 8.447-57.417 23.779-15.332 15.341-23.788 35.719-23.788 57.417s8.456 42.084 23.788 57.407c15.323 15.332 35.719 23.788 57.417 23.788 21.688 0 42.084-8.456 57.407-23.788 15.332-15.314 23.788-35.71 23.788-57.407s-8.456-42.094-23.788-57.417c-15.323-15.332-35.719-23.779-57.407-23.779zM927.39 110.182c-13.028 0-25.256-5.083-34.446-14.282-9.199-9.199-14.273-21.419-14.273-34.437s5.074-25.247 14.273-34.446c18.389-18.399 50.494-18.399 68.892 0 9.199 9.199 14.273 21.428 14.273 34.446s-5.074 25.247-14.273 34.437c-9.199 9.199-21.428 14.282-34.446 14.282z" />
<glyph unicode="&#xe986;" d="M1007.777 141.84l-160.755-160.764-68.902 68.902 160.764 160.755z" />
<glyph unicode="&#xe987;" d="M847.003-35.167c-4.312 0-8.437 1.71-11.485 4.758l-68.892 68.911c-6.337 6.337-6.337 16.614 0 22.961l160.764 160.755c6.337 6.347 16.624 6.347 22.961 0l68.892-68.892c6.337-6.337 6.337-16.614 0-22.961l-160.764-160.774c-3.039-3.048-7.164-4.758-11.476-4.758zM801.072 49.978l45.922-45.941 137.794 137.803-45.922 45.931z" />
<glyph unicode="&#xe988;" d="M904.429 176.287l-91.863-91.863-160.755 160.764 91.863 91.863z" />
<glyph unicode="&#xe989;" d="M812.557 68.181c-4.154 0-8.317 1.589-11.485 4.758l-160.764 160.764c-6.337 6.337-6.337 16.624 0 22.961l91.872 91.872c6.347 6.337 16.624 6.337 22.961 0l160.764-160.764c6.337-6.337 6.337-16.614 0-22.961l-91.872-91.872c-3.169-3.169-7.322-4.758-11.476-4.758zM674.763 245.188l137.794-137.803 68.902 68.911-137.794 137.794z" />
<glyph unicode="&#xe98a;" d="M628.831 153.326l195.211 195.201c12.684 12.684 12.684 33.257 0 45.941-12.684 12.675-33.248 12.675-45.931 0l-195.211-195.211c-12.684-12.684-12.684-33.248 0-45.931s33.248-12.684 45.931 0z" />
<glyph unicode="&#xe98b;" d="M605.87 127.577c-13.018 0-25.266 5.074-34.465 14.273-9.181 9.181-14.254 21.419-14.254 34.446 0 13 5.074 25.247 14.273 34.437l195.201 195.211c19.003 18.993 49.899 18.993 68.892 0 19.003-19.003 19.003-49.89 0-68.892l-195.201-195.211c-9.199-9.19-21.446-14.264-34.446-14.264zM801.072 387.721c-4.154 0-8.307-1.57-11.476-4.739l-195.211-195.211c-3.057-3.076-4.758-7.155-4.758-11.476 0-4.349 1.682-8.409 4.758-11.467 6.161-6.189 16.81-6.161 22.961-0.019l195.211 195.201c6.328 6.337 6.328 16.642 0 22.97-3.178 3.169-7.322 4.739-11.485 4.739z" />
<glyph unicode="&#xe98c;" d="M180.994 647.086l-51.070 201.557 200.349-52.278 424.868-424.868-149.279-149.279z" />
<glyph unicode="&#xe98d;" d="M605.87 205.975c-4.154 0-8.317 1.589-11.485 4.758l-424.868 424.877c-2.081 2.054-3.54 4.655-4.265 7.48l-51.079 201.548c-1.412 5.566 0.223 11.467 4.293 15.527 4.079 4.042 10.008 5.603 15.546 4.191l200.359-52.278c2.806-0.725 5.343-2.184 7.387-4.228l424.868-424.868c6.347-6.347 6.347-16.624 0-22.97l-149.279-149.279c-3.169-3.169-7.322-4.758-11.476-4.758zM195.638 655.411l410.232-410.232 126.309 126.318-410.279 410.26-169.499 44.231z" />
<glyph unicode="&#xe98e;" d="M680.589 297.977l-332.484 332.484z" />
<glyph unicode="&#xe98f;" d="M680.58 281.735c-4.154 0-8.317 1.589-11.485 4.758l-332.475 332.494c-6.347 6.337-6.347 16.624 0 22.961 6.337 6.337 16.614 6.337 22.961 0l332.475-332.494c6.347-6.337 6.347-16.624 0-22.961-3.169-3.169-7.322-4.758-11.476-4.758z" />
<glyph unicode="&#xe990;" d="M395.188 169.559l-195.211 195.211c-12.684 12.684-12.684 33.248 0 45.931s33.248 12.684 45.931 0l195.211-195.211c12.684-12.675 12.684-33.238 0-45.931-12.684-12.684-33.248-12.684-45.931 0z" />
<glyph unicode="&#xe991;" d="M418.149 143.81c-13 0-25.247 5.083-34.446 14.282l-195.201 195.201c-19.003 19.003-19.003 49.89 0 68.892 18.352 18.389 50.494 18.389 68.892 0l195.201-195.211c9.199-9.199 14.273-21.437 14.273-34.437 0-13.018-5.074-25.266-14.273-34.465-9.181-9.181-21.428-14.264-34.446-14.264zM222.948 403.974c-4.349 0-8.409-1.682-11.467-4.758-6.347-6.328-6.347-16.633-0.019-22.961l195.211-195.201c6.151-6.142 16.837-6.142 22.942 0 3.094 3.076 4.776 7.136 4.776 11.476 0 4.33-1.7 8.409-4.758 11.485l-195.211 195.201c-3.076 3.066-7.155 4.758-11.476 4.758z" />
<glyph unicode="&#xe992;" d="M843.017 663.328l51.079 201.548-200.349-52.269-424.877-424.868 149.279-149.279z" />
<glyph unicode="&#xe993;" d="M418.149 222.218c-4.154 0-8.307 1.589-11.476 4.758l-149.289 149.279c-6.337 6.337-6.337 16.624 0 22.961l424.877 424.868c2.044 2.054 4.581 3.503 7.369 4.237l200.349 52.269c5.594 1.412 11.467-0.139 15.555-4.181 4.061-4.061 5.705-9.943 4.302-15.509l-51.070-201.567c-0.725-2.816-2.184-5.417-4.265-7.48l-424.868-424.877c-3.178-3.169-7.332-4.758-11.485-4.758zM291.84 387.74l126.309-126.318 410.232 410.232 43.218 170.577-169.481-44.231zM843.017 663.328h0.158z" />
<glyph unicode="&#xe994;" d="M343.431 314.22l332.484 332.484z" />
<glyph unicode="&#xe995;" d="M343.44 297.977c-4.154 0-8.317 1.58-11.485 4.758-6.337 6.337-6.337 16.614 0 22.961l332.484 332.494c6.337 6.337 16.614 6.337 22.961 0 6.337-6.347 6.337-16.624 0-22.97l-332.484-332.484c-3.169-3.178-7.322-4.758-11.476-4.758z" />
<glyph unicode="&#xe996;" d="M491.883 906.505c9.125-34.651 37.522-60.855 72.786-67.183-35.264-6.328-63.661-32.532-72.786-67.183l-1.998-7.601-2.007 7.601c-9.116 34.651-37.513 60.855-72.777 67.183 35.264 6.328 63.661 32.532 72.777 67.183l2.007 7.601z" />
<glyph unicode="&#xe997;" d="M489.876 748.296c-7.369 0-13.827 4.981-15.695 12.117l-1.998 7.582c-7.49 28.434-31.027 50.159-59.944 55.344-7.74 1.394-13.371 8.121-13.371 15.983 0 7.87 5.631 14.598 13.371 15.992 28.936 5.185 52.455 26.91 59.944 55.335l1.998 7.592c1.868 7.118 8.326 12.098 15.695 12.098 7.378 0 13.827-4.981 15.704-12.098l1.998-7.592c7.499-28.425 31.036-50.15 59.963-55.335 7.74-1.394 13.371-8.121 13.371-15.992 0-7.861-5.631-14.589-13.371-15.983-28.927-5.185-52.464-26.91-59.963-55.344l-1.998-7.582c-1.877-7.136-8.326-12.117-15.704-12.117zM458.069 839.323c12.684-8.326 23.546-19.235 31.807-32.012 8.261 12.777 19.142 23.686 31.835 32.012-12.693 8.317-23.574 19.244-31.835 32.021-8.261-12.777-19.123-23.704-31.807-32.021z" />
<glyph unicode="&#xe998;" d="M898.854 615.055c13.65-51.841 56.144-91.054 108.905-100.514-52.761-9.469-95.254-48.682-108.905-100.523l-2.992-11.374-2.992 11.374c-13.65 51.841-56.144 91.054-108.905 100.523 52.761 9.459 95.254 48.673 108.905 100.514l2.992 11.374z" />
<glyph unicode="&#xe999;" d="M895.862 386.402c-7.369 0-13.827 4.971-15.704 12.098l-2.992 11.374c-11.987 45.56-49.704 80.378-96.072 88.685-7.74 1.394-13.371 8.121-13.371 15.983 0 7.87 5.631 14.607 13.371 15.992 46.368 8.307 84.085 43.107 96.072 88.666l2.992 11.374c1.877 7.136 8.335 12.098 15.704 12.098s13.827-4.971 15.704-12.098l2.992-11.374c12.006-45.56 49.704-80.359 96.072-88.666 7.74-1.385 13.371-8.121 13.371-15.992 0-7.861-5.631-14.589-13.371-15.983-46.359-8.307-84.067-43.125-96.072-88.685l-2.992-11.374c-1.877-7.136-8.335-12.098-15.704-12.098zM832.535 514.541c26.845-14.496 49.007-36.732 63.326-63.837 14.338 27.105 36.49 49.342 63.326 63.837-26.836 14.477-48.989 36.714-63.326 63.819-14.319-27.105-36.481-49.342-63.326-63.819z" />
<glyph unicode="&#xe99a;" d="M85.34 611.58c6.56-24.922 26.985-43.776 52.362-48.329-25.377-4.544-45.801-23.398-52.362-48.329l-1.44-5.464-1.44 5.464c-6.57 24.931-26.994 43.785-52.362 48.329 25.368 4.553 45.792 23.407 52.362 48.329l1.44 5.473z" />
<glyph unicode="&#xe99b;" d="M83.899 493.207c-7.378 0-13.827 4.971-15.704 12.098l-1.44 5.473c-4.934 18.752-20.443 33.071-39.52 36.49-7.74 1.403-13.371 8.121-13.371 15.992s5.631 14.589 13.371 15.983c19.077 3.429 34.595 17.73 39.52 36.463l1.44 5.482c1.877 7.146 8.326 12.098 15.704 12.098 7.369 0 13.827-4.962 15.695-12.098l1.44-5.464c4.934-18.752 20.461-33.052 39.538-36.481 7.74-1.394 13.371-8.112 13.371-15.983s-5.631-14.589-13.371-15.992c-19.077-3.42-34.595-17.739-39.538-36.49l-1.44-5.473c-1.868-7.127-8.326-12.098-15.695-12.098zM68.846 563.261c5.65-4.377 10.705-9.469 15.053-15.137 4.358 5.668 9.413 10.751 15.063 15.137-5.65 4.358-10.705 9.45-15.063 15.128-4.349-5.678-9.413-10.77-15.053-15.128z" />
<glyph unicode="&#xe99c;" glyph-name="place-1" d="M851.902 781.958c-78.174 113.14-202.068 178.042-339.89 178.042s-261.716-64.902-339.89-178.042c-77.79-112.568-95.752-255.082-48.144-380.992 12.734-34.384 32.976-67.79 60.020-99.094l300.756-353.268c6.802-7.996 16.768-12.604 27.258-12.604s20.456 4.606 27.258 12.604l300.672 353.172c27.164 31.484 47.38 64.854 60.008 98.962 47.704 126.138 29.742 268.652-48.048 381.22zM832.902 425.814c-9.738-26.316-25.636-52.334-47.226-77.36-0.060-0.060-0.12-0.12-0.168-0.192l-273.496-321.236-273.664 321.438c-21.578 25.004-37.476 51.020-47.31 77.588-39.372 104.13-24.43 221.962 39.982 315.184 64.614 93.52 167.038 147.156 280.992 147.156 113.952 0 216.364-53.634 280.98-147.156 64.424-93.222 79.378-211.054 39.91-315.422zM512.012 747.562c-110.552 0-200.504-89.94-200.504-200.504s89.94-200.504 200.504-200.504 200.504 89.94 200.504 200.504c0 110.552-89.952 200.504-200.504 200.504zM512.012 418.164c-71.072 0-128.896 57.824-128.896 128.896s57.824 128.896 128.896 128.896c71.072 0 128.896-57.824 128.896-128.896s-57.824-128.896-128.896-128.896z" />
<glyph unicode="&#xe99d;" glyph-name="focus" d="M24.381 600.838c13.467 0 24.381 10.914 24.381 24.381v212.876c0.048 40.381 32.762 73.095 73.143 73.143h212.876c13.467 0 24.381 10.914 24.381 24.381s-10.914 24.381-24.381 24.381h-212.876c-67.295-0.076-121.829-54.61-121.905-121.905v-212.876c0-13.467 10.914-24.381 24.381-24.381zM902.095 960h-212.876c-13.467 0-24.381-10.914-24.381-24.381s10.914-24.381 24.381-24.381h212.876c40.381-0.048 73.095-32.762 73.143-73.143v-212.876c0-13.467 10.914-24.381 24.381-24.381s24.381 10.914 24.381 24.381v212.876c-0.076 67.295-54.61 121.829-121.905 121.905zM999.619 295.162c-13.467 0-24.381-10.914-24.381-24.381v-212.876c-0.048-40.381-32.762-73.095-73.143-73.143h-212.876c-13.467 0-24.381-10.914-24.381-24.381s10.914-24.381 24.381-24.381h212.876c67.295 0.076 121.829 54.61 121.905 121.905v212.876c0 13.467-10.914 24.381-24.381 24.381zM334.781-15.238h-212.876c-40.381 0.048-73.095 32.762-73.143 73.143v212.876c0 13.467-10.914 24.381-24.381 24.381s-24.381-10.914-24.381-24.381v-212.876c0.076-67.295 54.61-121.829 121.905-121.905h212.876c13.467 0 24.381 10.914 24.381 24.381s-10.914 24.381-24.381 24.381zM512 639.771c-105.914 0-191.771-85.857-191.771-191.771s85.857-191.771 191.771-191.771 191.771 85.857 191.771 191.771c-0.114 105.867-85.905 191.657-191.771 191.771zM512 304.99c-78.981 0-143.010 64.029-143.010 143.010s64.029 143.010 143.010 143.010 143.010-64.029 143.010-143.010c-0.086-78.943-64.067-142.924-143.010-143.010z" />
<glyph unicode="&#xe99e;" glyph-name="membership" d="M448.516 777.313c-14.852-1.805-26.516-13.953-26.516-29.297v-60.008c0-7.961 3.164-15.586 8.797-21.203l60-60.008c5.859-5.859 13.531-8.789 21.211-8.789 7.672 0 15.352 2.93 21.211 8.789l60 60.008c5.625 5.625 8.789 13.242 8.789 21.203v60.008c0 15.344-11.664 27.492-26.516 29.297l109.57 133.484c10.609 12.742 8.875 31.672-3.836 42.273-12.742 10.578-31.672 8.852-42.281-3.836l-126.945-154.344-126.937 154.344c-10.578 12.687-29.477 14.414-42.281 3.836-12.711-10.602-14.437-29.531-3.836-42.273zM662.008 748.008v-60c0-24.023-9.375-46.641-26.367-63.633l-26.367-26.367h232.734v150c0 16.586-13.422 30-30 30h-155.531c3.367-9.43 5.531-19.43 5.531-30zM388.375 624.375c-16.992 16.992-26.375 39.609-26.375 63.633v60c0 10.57 2.164 20.57 5.531 30h-155.531c-16.578 0-30-13.414-30-30v-150h232.734zM212-63.999h600.007c16.586 0 30 13.414 30 30v572.007h-660.007v-572.007c0-16.586 13.422-30 30-30zM303.555 290.008c3.578 10.664 12.805 18.43 23.906 20.125l108.547 16.609 48.836 104.008c9.906 21.094 44.414 21.094 54.32 0l48.836-104.008 108.547-16.609c11.102-1.703 20.336-9.461 23.906-20.125 3.578-10.664 0.875-22.414-6.969-30.469l-79.43-81.391 18.812-115.312c1.844-11.336-2.961-24.734-12.336-31.352-9.531-6.719-21.961-7.219-31.789-1.734l-96.742 55.469-96.734-55.469c-10.047-5.625-22.383-4.891-31.789 1.734-9.375 6.617-14.18 20.016-12.336 31.352l18.812 115.312-79.43 81.391c-7.844 8.055-10.539 19.805-6.969 30.469zM451.625 183.422l-11.312-69.289 57.195 31.609c4.508 2.492 9.492 3.758 14.5 3.758s9.992-1.266 14.5-3.758l57.187-31.609-11.305 69.289c-1.523 9.406 1.492 18.984 8.141 25.781l49.219 50.453-66.648 10.195c-9.875 1.492-18.367 7.852-22.617 16.906l-28.477 60.641-28.477-60.641c-4.25-9.055-12.742-15.414-22.617-16.906l-66.656-10.195 49.219-50.453c6.656-6.797 9.672-16.375 8.148-25.781z" />
<glyph unicode="&#xe99f;" glyph-name="check" d="M979.285 893.348c-46.208 24.881-97.748-23.104-127.961-51.54-69.309-67.535-127.958-145.733-193.718-216.822-72.867-78.198-140.401-156.397-215.045-232.82-42.654-42.654-88.862-88.862-117.297-142.179-63.98 62.206-119.075 129.741-190.164 184.832-51.54 39.099-136.847 67.535-135.070-26.658 3.554-122.632 111.966-254.147 191.941-337.674 33.767-35.545 78.198-72.867 129.738-74.644 62.203-3.554 126.184 71.089 163.505 111.966 65.761 71.089 119.078 151.068 179.501 223.931 78.198 95.971 158.174 190.167 234.595 287.915 47.985 60.426 199.050 209.716 79.975 273.694zM78.224 415.269c-1.777 0-3.554 0-7.109-1.774-7.109 1.774-12.441 3.554-19.55 7.109v0c5.332 3.554 14.218 1.777 26.658-5.335z" />
<glyph unicode="&#xe9a0;" glyph-name="london" d="M963.56-14.35c-12.032-9.396-21.534-16.82-41.974-16.82-20.438 0-29.942 7.422-41.972 16.822-13.22 10.326-29.672 23.178-60.44 23.178-30.764 0-47.214-12.852-60.432-23.18-12.030-9.398-21.53-16.82-41.964-16.82-20.436 0-29.936 7.422-41.966 16.82-13.218 10.328-29.67 23.18-60.434 23.18s-47.214-12.852-60.432-23.18c-12.028-9.398-21.53-16.82-41.964-16.82-20.432 0-29.934 7.422-41.96 16.82-13.218 10.328-29.668 23.18-60.432 23.18s-47.216-12.852-60.434-23.18c-12.030-9.398-21.53-16.82-41.964-16.82s-29.936 7.422-41.964 16.82c-13.218 10.328-29.668 23.18-60.432 23.18s-47.214-12.852-60.434-23.18c-12.030-9.398-21.53-16.82-41.966-16.82-20.434 0-29.934 7.422-41.962 16.82-13.218 10.328-29.67 23.18-60.434 23.18v-30c20.434 0 29.934-7.422 41.962-16.82 13.218-10.328 29.67-23.18 60.434-23.18s47.216 12.852 60.434 23.18c12.030 9.398 21.53 16.82 41.964 16.82s29.934-7.422 41.962-16.82c13.218-10.328 29.67-23.18 60.434-23.18s47.214 12.852 60.434 23.18c12.030 9.398 21.53 16.82 41.966 16.82 20.434 0 29.934-7.422 41.962-16.82 13.218-10.328 29.668-23.18 60.432-23.18s47.214 12.852 60.434 23.18c12.028 9.398 21.528 16.82 41.962 16.82 20.436 0 29.936-7.422 41.966-16.82 13.218-10.328 29.67-23.18 60.434-23.18s47.216 12.852 60.434 23.18c12.030 9.398 21.53 16.82 41.964 16.82 20.438 0 29.94-7.422 41.97-16.82 13.22-10.328 29.672-23.18 60.44-23.18 30.766 0 47.22 12.852 60.44 23.178 12.030 9.398 21.534 16.822 41.972 16.822v30c-30.768 0.002-47.22-12.852-60.44-23.18zM222 756.828c-30.328 0-55-24.672-55-55v-75h110v75c0 30.328-24.672 55-55 55zM247 656.829h-50v45c0 13.786 11.214 25 25 25s25-11.214 25-25v-45zM801.998 756.828c-30.328 0-55-24.672-55-55v-75h110v75c0 30.328-24.672 55-55 55zM826.998 656.829h-50v45c0 13.786 11.214 25 25 25s25-11.214 25-25v-45zM963.558 57.652c-8.52-6.656-15.792-12.306-26.56-15.046v122.224h87v30h-43v309.739c5.426-6.918 11.212-13.87 17.412-20.768l22.31 20.056c-45.934 51.096-69.132 106.93-73.722 118.718v183.674l-55 85.25-23.252-36.040-66.748 101.71-66.748-101.71-23.252 36.040-55-85.25v-101.418h-100l-45 33.748-45-33.75h-100v101.42l-55 85.25-23.252-36.040-66.748 101.71-66.748-101.71-23.252 36.040-55-85.25v-183.686c-4.562-11.764-27.614-67.414-73.722-118.704l22.31-20.056c6.2 6.898 11.986 13.85 17.412 20.768v-309.739h-43v-30h87v-122.228c-10.772 2.738-18.044 8.39-26.566 15.048-13.218 10.328-29.67 23.18-60.434 23.18v-30c20.434 0 29.934-7.422 41.962-16.82 13.218-10.328 29.67-23.18 60.434-23.18s47.216 12.852 60.434 23.18c12.030 9.398 21.53 16.82 41.964 16.82s29.934-7.422 41.962-16.82c13.218-10.328 29.67-23.18 60.434-23.18s47.214 12.852 60.434 23.18c12.030 9.398 21.53 16.82 41.966 16.82 20.434 0 29.934-7.422 41.962-16.82 13.218-10.328 29.668-23.18 60.432-23.18s47.214 12.852 60.434 23.18c12.028 9.398 21.528 16.82 41.962 16.82 20.436 0 29.936-7.422 41.966-16.82 13.218-10.328 29.67-23.18 60.434-23.18s47.216 12.852 60.434 23.18c12.030 9.398 21.53 16.82 41.964 16.82 20.438 0 29.94-7.422 41.97-16.82 13.22-10.328 29.672-23.18 60.44-23.18 30.766 0 47.22 12.852 60.44 23.178 12.030 9.398 21.534 16.822 41.972 16.822v30c-30.768 0-47.22-12.852-60.44-23.18zM801.998 902.49l48.96-74.604-7.134-11.056h-83.652l-7.134 11.056 48.96 74.604zM686.999 797.41l25 38.75 31.826-49.332h116.348l31.826 49.332 25-38.75v-171.368l-31.212-31.212h-167.574l-31.214 31.212v171.368zM726.999 354.831v90h150v-90h-150zM876.998 324.831v-130h-150v130h150zM726.999 474.829v90h150v-90h-150zM566.999 674.829h90v-40h-90v40zM486.999 682.329l25 18.75 25-18.75v-47.5h-50v47.5zM366.999 674.829h90v-40h-90v40zM222 902.49l48.96-74.604-7.134-11.056h-83.652l-7.134 11.056 48.96 74.604zM107 797.41l25 38.75 31.826-49.332h116.348l31.826 49.332 25-38.75v-171.368l-31.212-31.212h-167.576l-31.212 31.212v171.368zM147 354.831v90h150v-90h-150zM296.999 324.831v-130h-150v130h150zM147 474.829v90h150v-90h-150zM73 194.829v0 353.157c10.798 17.786 18.774 33.63 24.192 45.438l19.808-19.808v-378.787h-44zM326.999 43.944c-5.466-1.958-11.788-3.114-19.808-3.114-20.434 0-29.936 7.422-41.964 16.82-13.218 10.328-29.668 23.18-60.432 23.18s-47.214-12.852-60.434-23.18c-8.73-6.82-16.148-12.584-27.362-15.242v122.422h210v-120.886zM667.001 63.598h-0.002c-12.046 8.73-27.6 17.232-52.62 17.232-30.764 0-47.214-12.852-60.432-23.18-12.028-9.398-21.53-16.82-41.964-16.82-20.432 0-29.934 7.422-41.96 16.82-13.218 10.328-29.668 23.18-60.432 23.18-25 0-40.548-8.488-52.59-17.21v41.21h309.999v-41.232zM356.999 134.832v30h140v-30h-140zM526.999 134.832v30h140v-30h-140zM696.997 194.831h-369.999v378.785h0.002l31.212 31.212h307.573l31.212-31.212v-378.785zM907 42.406v0c-11.226 2.656-18.65 8.422-27.384 15.246-13.22 10.326-29.672 23.178-60.44 23.178-30.764 0-47.214-12.852-60.432-23.18-12.030-9.398-21.53-16.82-41.964-16.82-8.006 0-14.322 1.152-19.78 3.102v120.898h210v-122.424zM906.998 194.831v378.785l19.808 19.808c5.418-11.808 13.394-27.65 24.192-45.438v-353.157h-44zM177 299.841h30v-80h-30v80zM237 299.841h30v-80h-30v80zM237 534.821h30v-30h-30v30zM177 534.821h30v-30h-30v30zM237 414.841h30v-30h-30v30zM177 414.841h30v-30h-30v30zM756.999 299.841h30v-80h-30v80zM816.998 299.841h30v-80h-30v80zM756.999 534.821h30v-30h-30v30zM816.998 534.821h30v-30h-30v30zM816.998 414.841h30v-30h-30v30zM756.999 414.841h30v-30h-30v30zM202 134.842h100v-30h-100v30zM142 134.842h30v-30h-30v30zM721.999 134.842h30v-30h-30v30zM781.998 134.842h100v-30h-100v30z" />
<glyph unicode="&#xe9a1;" glyph-name="architecture-and-city" d="M160 588c0-24.262 19.738-44 44-44s44 19.738 44 44v91.030l28.484 28.484-16.968 16.97-28.486-28.484h-15.030v52h-24v-52h-15.030l-28.486 28.486-16.968-16.97 28.484-28.486zM204 568c-11.028 0-20 8.972-20 20v20h40v-20c0-11.028-8.972-20-20-20zM224 672v-40h-40v40zM992 424v160h-64v96h-48v48h-48v48h-32v56.97l-32 32v95.030h-24v-95.030l-32-32v-56.97h-32v-48h-48v-48h-48v-96h-64v-160h-32v-464h-176v64h-32v71.030l64-64v216l100.97 100.97-80.97 80.97-20-20v69.774c0 31.572-25.684 57.256-57.254 57.256-15.294 0-29.672-5.956-40.484-16.77l-42.262-42.26-116 116.002v71.028h-32v33.678c18.446 5.238 32 22.222 32 42.322 0 19.434-25.764 64.684-33.66 78.090l-10.34 17.554-10.34-17.554c-7.896-13.406-33.66-58.656-33.66-78.090 0-20.102 13.554-37.086 32-42.322v-35.354c-18.446-5.238-32-22.222-32-42.324 0-24.262 19.738-44 44-44h20v-72.97l35.030-35.030-0.888-0.888c-17.156-17.156-17.156-45.070 0-62.224l16.888-16.888-12.768-12.768c-14.356-14.354-22.262-33.44-22.262-53.742v-68.656c-10.412-16.854-16-36.292-16-56.598v-117.206l48 48v-96l16 16v-23.030h-32v-64h-96v-24h1024v488zM216 24v111.030l40 40v-151.030zM364 395.030l47.030-47.030-67.030-67.030v94.060zM320 478.746v-389.774l-40 39.998v382.34c2.196 0.45 4.452 0.69 6.746 0.69 18.336 0 33.254-14.918 33.254-33.254zM24 740c0 6.78 9.172 27.164 20.002 47.454 10.828-20.284 19.998-40.666 19.998-47.454 0-11.028-8.972-20-20-20s-20 8.972-20 20zM44 600c-11.028 0-20 8.972-20 20s8.972 20 20 20h20v-40zM88 512.97v46.058l51.030-51.028-23.030-23.030zM115.112 421.858c-3.776 3.778-5.856 8.8-5.856 14.142s2.080 10.364 5.856 14.142l40.888 40.888 31.030-31.030-55.030-55.030zM119.23 358.26l136.77 136.768v-62.058l-152-151.998v40.52c0 13.888 5.408 26.948 15.23 36.768zM88 196.236c0 22.438 8.738 43.532 24.602 59.398l143.398 143.396v-94.060l-168-167.998zM256 271.030v-62.060l-120-119.998v62.058zM152 71.030l40 40v-87.030h-40zM120 0h168v-40h-168zM968 560v-136h-40v136zM616 400v-440h-40v440zM648 424h-40v136h40zM640 400h40v-368h152v368h40v-440h-232zM864 424v136h40v-136zM896 400h40v-440h-40zM904 584h-64v-160h-32v-368h-40v600h136zM736 823.030l20 20 20-20v-47.030h-40zM704 752h104v-24h-104zM656 704h200v-24h-200zM608 656h136v-600h-40v368h-32v160h-64zM544 560h40v-136h-40zM512 400h40v-440h-40zM1000-40h-40v440h40z" />
<glyph unicode="&#xe9a2;" glyph-name="inbox" d="M775.414 424.825c10.9 10.9 10.9 28.060 0 38.96-10.532 10.9-28.060 10.9-38.567 0l-197.548-197.18v651.514c0 15.196-12.078 27.667-27.274 27.667s-27.667-12.471-27.667-27.667v-651.514l-197.155 197.18c-10.9 10.9-28.453 10.9-38.96 0-10.9-10.9-10.9-28.060 0-38.96l244.315-244.315c10.532-10.532 28.060-10.532 38.96 0l243.897 244.315zM969.059 245.959c0 15.196 12.078 27.274 27.274 27.274s27.667-12.078 27.667-27.274v-268.078c0-15.196-12.471-27.667-27.667-27.667h-969.059c-15.196 0-27.274 12.471-27.274 27.667v268.078c0 15.196 12.078 27.274 27.274 27.274s27.667-12.078 27.667-27.274v-240.804h914.117v240.804z" />
<glyph unicode="&#xe9a3;" glyph-name="career" d="M980.977 194.425c-9.599 19.14-22.316 22.316-41.471 28.711-82.942 31.901-156.328 47.837-239.27 76.576-6.366 3.19-28.725 15.936-28.725 57.407 0 15.936-3.204 25.506-22.316 25.506-6.366 0-3.219 0-6.366 12.76-6.38 38.281-3.204 57.436-3.204 63.802 0 6.38 6.352 9.584 9.57 12.76 28.725 38.281 35.105 86.118 35.105 111.653 0 0 6.366-3.204 9.57 12.76 6.366 15.95 6.366 22.316 12.76 41.471 6.38 15.936 6.38 47.837-12.76 47.837-12.76-3.204-9.57 0-9.57 12.76v108.448c-3.204 38.281-25.535 60.626-44.675 73.372-25.535 15.95-35.105 22.331-47.837 31.901-12.76 9.57-9.57 19.14 0 31.901 6.366 6.366 15.936 12.76 19.155 15.95 0 0-3.219 0-6.38 0-6.366 0-66.977-9.584-89.308-15.95-47.837-12.76-92.512-25.521-130.807-57.421-25.521-19.14-47.837-47.851-47.837-79.766 0-15.936 0-76.562 0-108.448 0-9.57 0-15.95-12.76-12.76-22.331 3.204-9.57-41.471-9.57-44.675 3.19-15.936 9.57-28.725 15.936-47.837 3.204-12.76 9.584-12.76 9.584-12.76 6.366-28.725 15.936-79.766 41.457-111.653 3.204-3.204 6.38-9.584 6.38-15.95-3.204-19.155-3.204-44.661-6.38-63.787 0-3.219-3.204-12.76-9.57-12.76-15.95 0-22.316-12.76-19.155-25.535 0-28.711-19.14-51.041-28.711-57.393-41.471-19.155-185.024-60.626-232.89-76.548-31.901-9.584-41.471-19.183-47.837-31.901l-41.471-105.301c181.849 0 274.346-111.653 462.547-143.553 0 0 0 0 3.204 0l-51.041 89.308 98.864 274.346-31.887 67.006h63.787l-31.901-67.006 98.878-274.346-60.626-82.942c3.219 0 6.394 0 6.394 0 194.58 31.901 328.564 143.553 462.547 143.553l-41.414 108.505zM862.944 140.179h-146.758v25.535h146.772v-25.535z" />
<glyph unicode="&#xe9a4;" glyph-name="circular" d="M967.334 682.345c-35.856 69.541-88.146 130.947-151.209 177.583-9.256 6.842-22.3 4.887-29.146-4.366s-4.887-22.3 4.366-29.146c57.955-42.857 106-99.28 138.949-163.174 34.522-66.95 52.026-139.366 52.026-215.245 0-259.335-210.987-470.322-470.322-470.322s-470.322 210.987-470.322 470.325 210.987 470.322 470.322 470.322c11.506 0 20.838 9.332 20.838 20.838s-9.332 20.838-20.838 20.838c-282.316 0-511.998-229.682-511.998-511.998s229.682-511.998 511.998-511.998 511.998 229.682 511.998 511.998c0 81.422-19.591 162.455-56.663 234.343zM380.988 685.738c-6.515-3.706-10.541-10.624-10.541-18.115v-457.308c0-11.51 9.332-20.838 20.838-20.838s20.838 9.329 20.838 20.838v420.651l308.52-183.664-226.873-146.17c-9.672-6.234-12.465-19.129-6.231-28.802 6.238-9.676 19.129-12.468 28.805-6.231l255.147 164.389c6.064 3.907 9.676 10.673 9.547 17.886s-3.977 13.847-10.176 17.539l-368.92 219.617c-6.446 3.831-14.441 3.914-20.956 0.208z" />
<glyph unicode="&#xe9a5;" glyph-name="share" d="M811.375 302.14c-58.897 0-111.415-28.066-145.010-71.442l-281.302 157.13c6.591 18.924 10.206 39.336 10.206 60.385 0 21.262-3.615 41.462-10.419 60.598l281.090 156.917c33.382-43.588 86.113-71.867 145.223-71.867 100.784 0 183.070 82.073 183.070 183.070s-82.073 183.070-183.070 183.070-183.070-82.073-183.070-183.070c0-21.262 3.615-41.674 10.419-60.598l-280.877-156.917c-33.382 43.801-86.113 71.867-145.223 71.867-100.784 0-183.070-82.073-183.070-183.070s82.286-183.070 183.282-183.070c59.11 0 111.841 28.279 145.435 72.080l281.090-157.13c-6.804-19.136-10.631-39.761-10.631-61.023 0-100.784 82.073-183.070 183.070-183.070s183.070 82.073 183.070 183.070-82.286 183.070-183.282 183.070zM811.375 902.379c69.316 0 125.661-56.346 125.661-125.661s-56.346-125.661-125.661-125.661-125.661 56.346-125.661 125.661 56.558 125.661 125.661 125.661zM212.625 322.551c-69.316 0-125.661 56.346-125.661 125.661s56.346 125.661 125.661 125.661 125.661-56.346 125.661-125.661-56.558-125.661-125.661-125.661zM811.375-6.379c-69.316 0-125.661 56.346-125.661 125.661s56.346 125.661 125.661 125.661 125.661-56.346 125.661-125.661c0-69.316-56.346-125.661-125.661-125.661z" />
<glyph unicode="&#xe9a6;" d="M480 480v-512c0-17.695 14.305-32 32-32s32 14.305 32 32v512h-64.001z" />
<glyph unicode="&#xe9a7;" d="M512 960c176.736 0 320.001-143.294 320.001-320.001s-143.265-320.030-320.001-320.030c-176.703-0.033-320.001 143.327-320.001 320.030s143.294 320.001 320.001 320.001z" />
<glyph unicode="&#xe9a8;" d="M607.998 799.968c53.023 0 96.001-42.945 96.001-95.968s-42.974-96.001-96.001-96.001c-52.99 0-96.001 42.974-96.001 96.001 0.004 52.994 43.011 95.968 96.001 95.968z" />
<glyph unicode="&#xe9a9;" d="M544 351.936c-176.67 0-320.001 143.36-320.001 320.063 0 80.222 29.73 153.343 78.496 209.504-67.585-58.721-110.497-145.024-110.497-241.505 0-176.703 143.294-320.030 320.001-320.030 96.513 0 182.817 42.945 241.505 110.497-56.161-48.833-129.282-78.529-209.504-78.529z" />
<glyph unicode="&#xe9aa;" glyph-name="architecture-and-city-1" d="M162.382 284.666c8.836 0 16 7.164 16 16v21.334c0 8.836-7.164 16-16 16s-16-7.164-16-16v-21.336c0-8.836 7.164-15.998 16-15.998zM601.192 64.666c-8.836 0-16-7.164-16-16v-24c0-8.836 7.164-16 16-16s16 7.164 16 16v24c0 8.836-7.164 16-16 16zM971.234 640h36.766c8.836 0 16 7.164 16 16s-7.164 16-16 16h-36.766v86h36.766c8.836 0 16 7.164 16 16s-7.164 16-16 16h-162c-8.836 0-16-7.164-16-16s7.164-16 16-16h93.234v-86h-205.276v86h61.376c8.836 0 16 7.164 16 16s-7.164 16-16 16h-61.376v55.276c0 8.836-7.164 16-16 16h-112l30.842 41.124c5.3 7.068 3.87 17.098-3.202 22.4-7.068 5.302-17.096 3.872-22.4-3.2l-45.242-60.324h-37.956v82.724c0 8.836-7.164 16-16 16s-16-7.164-16-16v-82.724h-37.958l-45.242 60.324c-5.3 7.068-15.33 8.502-22.4 3.2s-8.502-15.332-3.2-22.4l30.844-41.124h-112c-8.836 0-16-7.164-16-16v-55.276h-274.044c-8.836 0-16-7.164-16-16s7.164-16 16-16h36.766v-86h-36.766c-8.836 0-16-7.164-16-16s7.164-16 16-16h290.042c8.836 0 16 7.164 16 16v173.276h379.914v-173.276c0-8.836 7.164-16 16-16h221.278v-112h-854.468v71.334c0 8.836-7.164 16-16 16s-16-7.164-16-16v-631.334h-36.766c-8.836 0-16-7.164-16-16s7.164-16 16-16h992c8.836 0 16 7.164 16 16s-7.164 16-16 16h-36.766zM290.042 672h-205.276v82.382h205.278v-82.382zM678.808-32h-240v528h146.382v-398c0-8.836 7.164-16 16-16s16 7.164 16 16v398h61.618zM345.192 496h61.618v-528h-61.618zM84.766 496h61.618v-131.334c0-8.836 7.164-16 16-16s16 7.164 16 16v131.334h134.808v-528h-134.81v286c0 8.836-7.164 16-16 16s-16-7.164-16-16v-286h-61.616zM877.618-32v482c0 8.836-7.164 16-16 16s-16-7.164-16-16v-482h-134.808v528h228.426v-528zM552 576c8.836 0 16 7.164 16 16v176c0 8.836-7.164 16-16 16h-80c-8.836 0-16-7.164-16-16v-176c0-8.836 7.164-16 16-16zM488 752h48v-144h-48zM400 624v112c0 8.836-7.164 16-16 16s-16-7.164-16-16v-112c0-8.836 7.164-16 16-16s16 7.164 16 16zM656 624v112c0 8.836-7.164 16-16 16s-16-7.164-16-16v-112c0-8.836 7.164-16 16-16s16 7.164 16 16z" />
<glyph unicode="&#xe9ab;" glyph-name="gps" d="M1018.388 941.874c-5.85 6.048-14.873 7.734-22.508 4.224l-984.318-451.753c-7.913-3.649-12.533-11.998-11.383-20.644s7.794-15.508 16.381-16.936l441.5-73.99 50.47-417.207c1.071-8.686 7.714-15.686 16.341-17.154 1.13-0.198 2.241-0.297 3.351-0.297 7.437 0 14.397 4.184 17.769 11.026l475.947 960.124c3.728 7.516 2.3 16.579-3.55 22.607z" />
<glyph unicode="&#xe9ac;" glyph-name="woman" d="M842.368 190.080l-163.456 40.874-9.43 37.76c112.768 18.986 170.794 52.778 173.354 54.272 6.058 3.542 9.814 9.984 10.326 16.982 0.47 6.998-2.646 13.866-8.15 18.262-0.766 0.596-77.012 63.572-77.012 281.77 0 184.022-43.050 277.334-128 277.334h-12.586c-30.636 29.61-53.632 42.666-115.414 42.666-80.17 0-256-80.598-256-320 0-218.198-76.246-281.174-76.8-281.6-5.674-4.266-8.874-11.050-8.534-18.134 0.384-7.126 4.224-13.526 10.326-17.194 2.56-1.536 60.032-35.498 173.482-54.442l-9.43-37.674-163.454-40.876c-106.924-26.752-181.59-122.41-181.59-232.746 0-11.776 9.558-21.334 21.334-21.334h981.334c11.776 0 21.334 9.642 21.334 21.418-0.002 110.252-74.668 205.91-181.634 232.662z" />
<glyph unicode="&#xe9ad;" glyph-name="business-and-finance" d="M972.8 852.691h-921.48c-28.291 0-51.32-23.030-51.32-51.341 0-28.278 22.883-51.3 51.32-51.3h921.48c18.452 0 35.86-4.498 51.2-12.489v63.93c0 28.23-22.97 51.2-51.2 51.2zM972.8 689.815h-921.48c-18.171 0-35.659 4.297-51.32 12.429v-607.734c0-28.23 22.97-51.2 51.2-51.2h921.6c28.23 0 51.2 22.97 51.2 51.2v148.761c-1.524 0-244.899-0.022-246.423 0.040-0.020-0.020-0.040 0-0.040 0-67.263 0.823-121.736 55.798-121.736 123.261 0 67.965 55.316 123.282 123.282 123.282h244.917c0 29.656 0 117.754 0 148.761 0 28.182-22.948 51.2-51.2 51.2zM884.977 303.506h139.023v126.113h-139.023c23.154-38.687 23.239-87.239 0-126.113zM716.037 366.572c0-34.963 28.511-63.046 63.046-63.046 34.796 0 63.046 28.293 63.046 63.046 0 34.72-28.246 63.046-63.046 63.046-34.645 0-63.046-28.22-63.046-63.046z" />
<glyph unicode="&#xe9ae;" glyph-name="download" d="M765.12 493.248c-5.184 11.456-16.576 18.752-29.12 18.752h-128v416c0 17.664-14.336 32-32 32h-128c-17.664 0-32-14.336-32-32v-416h-128c-12.544 0-23.936-7.36-29.12-18.752-5.248-11.456-3.2-24.832 5.056-34.304l224-256c6.080-6.976 14.848-10.944 24.064-10.944s17.984 4.032 24.064 10.944l224 256c8.32 9.408 10.24 22.848 5.056 34.304zM864 256v-192h-704v192h-128v-256c0-35.392 28.672-64 64-64h832c35.392 0 64 28.608 64 64v256h-128z" />
<glyph unicode="&#xe9af;" glyph-name="menu" d="M146.286 228.571c-80.658 0-146.286-65.627-146.286-146.286s65.627-146.286 146.286-146.286 146.286 65.627 146.286 146.286-65.627 146.286-146.286 146.286zM512 228.571c-80.658 0-146.286-65.627-146.286-146.286s65.627-146.286 146.286-146.286 146.286 65.627 146.286 146.286-65.627 146.286-146.286 146.286zM877.714 228.571c-80.658 0-146.286-65.627-146.286-146.286s65.627-146.286 146.286-146.286 146.286 65.627 146.286 146.286-65.627 146.286-146.286 146.286zM146.286 594.286c-80.658 0-146.286-65.627-146.286-146.286s65.627-146.286 146.286-146.286 146.286 65.627 146.286 146.286-65.627 146.286-146.286 146.286zM512 594.286c-80.658 0-146.286-65.627-146.286-146.286s65.627-146.286 146.286-146.286 146.286 65.627 146.286 146.286-65.627 146.286-146.286 146.286zM877.714 594.286c-80.658 0-146.286-65.627-146.286-146.286s65.627-146.286 146.286-146.286 146.286 65.627 146.286 146.286-65.627 146.286-146.286 146.286zM146.286 960c-80.658 0-146.286-65.627-146.286-146.286s65.627-146.286 146.286-146.286 146.286 65.627 146.286 146.286-65.627 146.286-146.286 146.286zM512 960c-80.658 0-146.286-65.627-146.286-146.286s65.627-146.286 146.286-146.286 146.286 65.627 146.286 146.286-65.627 146.286-146.286 146.286zM877.714 667.429c80.658 0 146.286 65.627 146.286 146.286s-65.627 146.286-146.286 146.286-146.286-65.627-146.286-146.286 65.627-146.286 146.286-146.286z" />
<glyph unicode="&#xe9b0;" glyph-name="gift" d="M513.901 464.277c64.197 36.856 197.65 121.092 246.455 209.365 60.951 102.962 62.556 204.86 4.235 254.079-34.309 26.775-78.423 37.617-121.235 29.793-47.986-8.516-89.65-38.047-113.577-80.506-3.573-5.258-9.519-8.407-15.878-8.407s-12.305 3.149-15.878 8.407c-28.285 51.125-82.129 82.827-140.557 82.759-34.183 0.563-67.501-10.763-94.258-32.044-58.321-49.219-56.716-151.117 3.964-253.593 49.078-88.744 182.533-172.998 246.728-209.854zM364.371 775.236c0-10.191-8.262-18.455-18.455-18.455s-18.455 8.262-18.455 18.455v18.455c0 10.191 8.262 18.455 18.455 18.455s18.455-8.262 18.455-18.455v-18.455zM382.826 849.055h18.455c10.191 0 18.455-8.262 18.455-18.455s-8.262-18.455-18.455-18.455h-18.455c-10.191 0-18.455 8.262-18.455 18.455s8.262 18.455 18.455 18.455zM327.46 885.965c0 10.191 8.262 18.455 18.455 18.455s18.455-8.262 18.455-18.455v-18.455c0-10.191-8.262-18.455-18.455-18.455s-18.455 8.262-18.455 18.455v18.455zM290.552 849.055h18.455c10.191 0 18.455-8.262 18.455-18.455s-8.262-18.455-18.455-18.455h-18.455c-10.191 0-18.455 8.262-18.455 18.455s8.262 18.455 18.455 18.455zM477.185 364.244l-386.556 168.071-79.006-65.83 386.576-168.069zM625.822 300.078l386.556 168.069-77.676 64.74-386.556-168.087zM622.739 260.156c-4.314-0.002-8.492 1.51-11.804 4.271l-80.47 67.045v-395.474l387.553 168.511v282.365l-287.926-125.184c-2.319-1.011-4.824-1.532-7.353-1.534zM401.281 258.499c-2.531 0-5.034 0.521-7.353 1.532l-287.926 125.18v-280.71l387.553-168.503v393.814l-80.452-67.043c-3.322-2.759-7.505-4.269-11.822-4.271zM760.803 609.961c-64.59-78.268-172.566-146.253-237.855-182.99-5.613-3.171-12.48-3.171-18.094 0-65.581 36.9-174.237 105.336-238.886 184.342l-132.158-57.517 378.185-164.442 378.177 164.421-129.37 56.185z" />
<glyph unicode="&#xe9b1;" glyph-name="email" d="M988.4-16c0 0 0 451.6 0 602 0 6.2-7.8 14-15.4 19.8l-157.4 114.2v126.2c0 12.4-10.4 20.8-20.8 20.8h-179.4l-91.4 66.6c-6.2 4.2-16.6 4.2-23 0l-91.4-66.6h-179.4c-12.4 0-20.8-10.4-20.8-20.8v-124.8l-159.4-115.8c-9.4-5.8-15.4-13.4-15.4-19.8 0-151.4 0-606 0-606 0-11.8 9.4-20 19.2-20.8 0.6 0 1 0 1.6 0h912c13.4 0.2 21 10.6 21 25zM948.8 548.6v-527.2l-344.2 275.6 344.2 251.6zM933.4 585.2l-117.8-85.8v172.4l117.8-86.6zM511.6 894.2l36.6-27h-73.4l36.8 27zM774 825.4v-356.4l-262.4-191.2-262.4 191.2v356.4h524.8zM74.4 548.6l344.2-251.6-344.2-277.2v528.8zM209.6 497.8l-120.8 88 120.8 87.8v-175.8zM111.8-1.2l340.2 273.8 47-34.4c9-6.8 15.8-6.8 25 0l47 34.4 342.2-273.8h-801.4zM372.2 723.4h281v-39.6h-281v39.6zM372.2 596.4h281v-39.6h-281v39.6zM372.2 469.4h281v-39.6h-281v39.6z" />
<glyph unicode="&#xe9b2;" glyph-name="clock1" d="M512 960c-282.317 0-512-229.683-512-512s229.683-512 512-512 512 229.683 512 512-229.683 512-512 512zM512-29.867c-263.492 0-477.867 214.374-477.867 477.867s214.374 477.867 477.867 477.867 477.867-214.374 477.867-477.867-214.374-477.867-477.867-477.867zM529.067 515.908v173.090c0 9.438-7.646 17.067-17.067 17.067s-17.067-7.629-17.067-17.067v-173.090c-23.876-6.212-42.564-24.9-48.777-48.777h-121.89c-9.421 0-17.067-7.629-17.067-17.067s7.646-17.067 17.067-17.067h121.89c7.629-29.355 34.133-51.2 65.843-51.2 37.649 0 68.267 30.618 68.267 68.267 0 31.727-21.845 58.214-51.2 65.843zM512 415.932c-18.825 0-34.133 15.309-34.133 34.133s15.309 34.133 34.133 34.133 34.133-15.309 34.133-34.133-15.309-34.133-34.133-34.133zM512 791.398c9.421 0 17.067 7.629 17.067 17.067v17.067c0 9.438-7.646 17.067-17.067 17.067s-17.067-7.629-17.067-17.067v-17.067c0-9.438 7.646-17.067 17.067-17.067zM512 108.732c-9.421 0-17.067-7.629-17.067-17.067v-17.067c0-9.438 7.646-17.067 17.067-17.067s17.067 7.629 17.067 17.067v17.067c0 9.438-7.646 17.067-17.067 17.067zM887.467 467.132h-17.067c-9.421 0-17.067-7.629-17.067-17.067s7.646-17.067 17.067-17.067h17.067c9.421 0 17.067 7.629 17.067 17.067s-7.646 17.067-17.067 17.067zM153.6 467.132h-17.067c-9.421 0-17.067-7.629-17.067-17.067s7.646-17.067 17.067-17.067h17.067c9.421 0 17.067 7.629 17.067 17.067s-7.646 17.067-17.067 17.067zM765.423 727.637l-12.066-12.066c-6.673-6.673-6.673-17.459 0-24.132 3.328-3.328 7.697-5.001 12.066-5.001s8.738 1.673 12.066 5.001l12.066 12.066c6.673 6.673 6.673 17.459 0 24.132s-17.459 6.656-24.132 0zM246.511 208.708l-12.066-12.066c-6.673-6.673-6.673-17.459 0-24.132 3.328-3.328 7.697-5.001 12.066-5.001s8.738 1.673 12.066 5.001l12.066 12.066c6.673 6.673 6.673 17.459 0 24.132s-17.476 6.656-24.132 0zM777.489 208.708c-6.673 6.673-17.459 6.673-24.132 0s-6.673-17.459 0-24.132l12.066-12.066c3.328-3.328 7.697-5.001 12.066-5.001s8.738 1.673 12.066 5.001c6.673 6.673 6.673 17.459 0 24.132l-12.066 12.066zM258.577 727.637c-6.673 6.673-17.459 6.673-24.132 0s-6.673-17.459 0-24.132l12.066-12.066c3.328-3.328 7.697-5.001 12.066-5.001s8.738 1.673 12.066 5.001c6.673 6.673 6.673 17.459 0 24.132l-12.066 12.066z" />
<glyph unicode="&#xe9b3;" glyph-name="right-angle" d="M241.149 498.692l440.295 440.281c28.008 28.021 73.418 28.021 101.413 0 27.996-27.996 27.996-73.404 0-101.399l-389.593-389.581 389.581-389.568c27.996-28.008 27.996-73.411 0-101.408-27.996-28.008-73.404-28.008-101.413 0l-440.295 440.288c-13.999 14.005-20.99 32.341-20.99 50.686 0 18.354 7.005 36.703 21.001 50.702z" />
<glyph unicode="&#xe9b4;" glyph-name="remove" d="M353.625 257.625c-8.195 0-16.391 3.109-22.617 9.383-12.5 12.5-12.5 32.766 0 45.266l316.758 316.805c12.5 12.5 32.766 12.5 45.266 0 12.508-12.5 12.508-32.766 0-45.273l-316.758-316.797c-6.266-6.273-14.461-9.383-22.648-9.383zM670.375 257.625c-8.188 0-16.383 3.109-22.609 9.383l-316.758 316.758c-12.5 12.5-12.5 32.766 0 45.266 12.5 12.508 32.766 12.508 45.266 0l316.758-316.797c12.508-12.5 12.508-32.766 0-45.266-6.266-6.234-14.461-9.344-22.656-9.344zM906.664-64h-789.328c-64.727 0-117.336 52.609-117.336 117.336v789.328c0 64.727 52.609 117.336 117.336 117.336h789.328c64.727 0 117.336-52.609 117.336-117.336v-789.328c0-64.727-52.609-117.336-117.336-117.336zM117.336 896c-29.398 0-53.336-23.938-53.336-53.336v-789.328c0-29.398 23.938-53.336 53.336-53.336h789.328c29.398 0 53.336 23.938 53.336 53.336v789.328c0 29.398-23.938 53.336-53.336 53.336z" />
<glyph unicode="&#xe9b5;" glyph-name="play-button" d="M512 960c-282.317 0-512-229.683-512-512s229.683-512 512-512 512 229.683 512 512-229.683 512-512 512zM777.609 433.903l-375.467-256c-2.884-1.963-6.246-2.97-9.609-2.97-2.731 0-5.478 0.649-7.97 1.98-5.598 2.953-9.097 8.755-9.097 15.087v512c0 6.332 3.499 12.134 9.097 15.087 5.598 2.97 12.356 2.56 17.596-0.99l375.467-256c4.642-3.174 7.441-8.448 7.441-14.097s-2.799-10.923-7.458-14.097z" />
</font>
</defs>
</svg>
